<svg width="204" height="106" viewBox="0 0 204 106" fill="none" xmlns="http://www.w3.org/2000/svg">
<rect x="0.5" y="0.5" width="203" height="105" rx="15.5" fill="white"/>
<rect x="0.5" y="0.5" width="203" height="105" rx="15.5" stroke="#E3E3E3"/>
<g clip-path="url(#clip0_337_8152)">
<path d="M58 33.7694H83.783V46.6609H70.8915L58 33.7694ZM58 46.6609H70.8915L83.783 59.5524H58V46.6609ZM58 59.5524H70.8915V72.4438L58 59.5524Z" fill="#ACB0B9"/>
<path d="M98.3306 43.9395H108.753V47.2513H102.275V51.8536H108.753V55.0922H102.275V60.985H98.3306V43.9395ZM110.895 49.2478H114.621V51.7073C114.816 50.8621 115.214 50.2133 115.814 49.7592C116.43 49.2879 117.114 49.0532 117.86 49.0532C118.25 49.0532 118.575 49.0862 118.834 49.1505V52.6086C118.462 52.5637 118.088 52.5395 117.713 52.5354C116.691 52.5354 115.92 52.8675 115.4 53.5334C114.882 54.1828 114.621 55.1565 114.621 56.4559V60.985H110.897V49.2478H110.895ZM124.715 61.3018C123.579 61.3018 122.588 61.0334 121.744 60.4979C120.916 59.9623 120.258 59.202 119.845 58.3061C119.407 57.3654 119.186 56.3008 119.186 55.1164C119.186 53.9474 119.415 52.8917 119.869 51.9509C120.295 51.042 120.971 50.2735 121.817 49.735C122.677 49.1995 123.659 48.9311 124.764 48.9311C125.592 48.9311 126.331 49.1104 126.98 49.4672C127.629 49.8252 128.116 50.3124 128.441 50.9282V49.2478H132.142V60.985H128.441V59.3289C128.116 59.9134 127.613 60.3917 126.931 60.7656C126.249 61.1272 125.487 61.3112 124.715 61.3018ZM125.787 58.2088C126.679 58.2088 127.369 57.9168 127.856 57.3323C128.344 56.7478 128.587 56.0088 128.587 55.1164C128.587 54.24 128.344 53.5092 127.856 52.9247C127.369 52.3402 126.679 52.0482 125.787 52.0482C124.942 52.0482 124.261 52.3319 123.741 52.9005C123.238 53.4691 122.986 54.2069 122.986 55.1164C122.986 56.0259 123.238 56.772 123.741 57.3565C124.261 57.9251 124.943 58.2088 125.787 58.2088ZM134.748 49.2478H138.474V50.9524C138.734 50.3508 139.155 49.8636 139.739 49.4914C140.341 49.1192 141.039 48.9311 141.834 48.9311C143.685 48.9311 144.911 49.653 145.511 51.0986C145.841 50.4434 146.358 49.9013 146.996 49.5404C147.679 49.1293 148.464 48.9187 149.261 48.9311C152.037 48.9311 153.425 50.5212 153.425 53.7038V60.985H149.675V54.3857C149.675 53.5912 149.528 53.0067 149.236 52.6327C148.944 52.26 148.506 52.0724 147.921 52.0724C147.288 52.0724 146.801 52.2918 146.46 52.7301C146.119 53.1524 145.949 53.8902 145.949 54.946V60.985H142.199V54.3615C142.199 53.5664 142.053 52.9896 141.761 52.6327C141.486 52.26 141.055 52.0724 140.471 52.0724C139.821 52.0724 139.326 52.2918 138.985 52.7301C138.644 53.1524 138.474 53.8902 138.474 54.946V60.985H134.749V49.2478H134.748ZM167.421 54.5077C167.421 55.0103 167.388 55.5547 167.322 56.1392H158.655C158.688 56.9024 158.947 57.4857 159.434 57.8927C159.921 58.2979 160.58 58.5013 161.406 58.5013C162.559 58.5013 163.29 58.1516 163.598 57.4538H167.25C167.071 58.6069 166.438 59.5394 165.351 60.2543C164.28 60.952 162.964 61.3018 161.406 61.3018C159.394 61.3018 157.811 60.7574 156.657 59.6698C155.521 58.5816 154.953 57.0646 154.953 55.1164C154.953 53.8501 155.212 52.7542 155.732 51.8288C156.234 50.9046 157.008 50.1567 157.948 49.686C158.906 49.1835 160.018 48.9311 161.286 48.9311C162.486 48.9311 163.549 49.1664 164.474 49.6377C165.416 50.1089 166.139 50.766 166.641 51.61C167.161 52.4552 167.421 53.4207 167.421 54.5077ZM163.742 53.8259C163.726 53.0468 163.508 52.4534 163.085 52.0482C162.663 51.643 162.054 51.4396 161.259 51.4396C160.464 51.4396 159.831 51.6584 159.359 52.0972C158.905 52.5195 158.67 53.0951 158.653 53.8259H163.742ZM169.064 49.2478H172.789V51.7073C172.984 50.8621 173.382 50.2133 173.983 49.7592C174.565 49.3003 175.286 49.0514 176.028 49.0532C176.417 49.0532 176.743 49.0862 177.002 49.1505V52.6086C176.63 52.5637 176.256 52.5395 175.882 52.5354C174.859 52.5354 174.089 52.8675 173.568 53.5334C173.048 54.1828 172.789 55.1565 172.789 56.4559V60.985H169.064V49.2478Z" fill="#ACB0B9"/>
</g>
<defs>
<clipPath id="clip0_337_8152">
<rect width="119.437" height="42.4663" fill="white" transform="translate(58 32)"/>
</clipPath>
</defs>
</svg>
