<svg width="204" height="106" viewBox="0 0 204 106" fill="none" xmlns="http://www.w3.org/2000/svg">
<rect x="0.5" y="0.5" width="203" height="105" rx="15.5" fill="white"/>
<rect x="0.5" y="0.5" width="203" height="105" rx="15.5" stroke="#E3E3E3"/>
<g clip-path="url(#clip0_337_8140)">
<path fill-rule="evenodd" clip-rule="evenodd" d="M77.8178 68.8042C79.5134 67.7518 80.9384 66.4676 82.1441 65.1303C83.0073 66.8932 84.7396 68.0965 86.5765 68.0965C87.9921 68.0965 89.4076 67.3887 90.3808 66.0616C90.7347 67.3002 91.6194 68.0965 93.1234 68.0965C94.2521 68.0965 96.7126 66.9446 98.9437 65.2378L98.697 66.5039C98.6086 66.8578 98.6086 67.1232 98.6086 67.3002C98.697 67.831 99.0509 68.0964 99.5818 68.0964C100.643 68.0964 102.147 67.1232 102.501 65.5308L103.032 63.319C103.651 60.4879 107.81 56.2413 108.96 56.2413C109.048 56.2413 109.225 56.3297 109.225 56.5067C109.26 56.7876 109.058 57.3194 108.764 58.0965C108.315 59.2773 107.652 61.0246 107.279 63.319C107.102 64.0267 107.102 64.7345 107.19 65.2653C107.367 66.9463 108.34 68.0964 110.198 68.0964C111.788 68.0964 115.235 66.7392 117.651 64.0249C117.834 65.4983 118.145 66.7515 118.603 67.5656C118.78 67.9195 119.222 68.008 119.665 68.008C120.196 68.008 120.903 67.8311 121.7 67.3887C123.558 66.4155 125.946 64.1153 128.247 60.7533C128.6 60.8418 128.866 60.8418 129.131 60.8418C130.049 60.8418 131.075 60.5178 132.028 59.9445C131.632 61.1401 131.478 62.3611 131.609 63.4959C131.962 66.1501 134.174 68.1849 136.563 68.1849C137.89 68.1849 139.306 67.3887 140.279 66.1501C140.633 67.831 141.694 69.6004 144.348 70.6621C144.525 70.7506 144.702 70.7506 144.879 70.7506C145.41 70.7506 145.764 70.3967 145.675 69.9543C145.675 69.7774 145.587 69.512 145.322 69.335C144.702 68.8042 143.995 67.831 143.818 66.327C143.729 65.6192 143.729 64.7345 144.171 63.8498C144.702 61.4611 144.791 60.7533 144.791 60.4879C144.702 59.8686 144.26 59.6032 143.729 59.6032C142.667 59.6032 141.163 60.6648 140.81 62.1688C140.19 64.4691 138.598 65.9731 137.536 65.9731C136.209 65.9731 135.501 64.5576 135.324 63.0536C134.882 59.3378 137.182 54.8257 140.633 54.8257C141.606 54.8257 142.756 55.1796 142.844 56.2413C142.953 57.2197 142.36 57.4634 141.908 57.6495C141.624 57.7663 141.395 57.8604 141.429 58.0992C141.517 58.8069 142.667 58.9839 143.464 58.9839C144.171 58.9839 146.472 58.453 146.118 55.8874C145.852 53.8525 143.641 52.8793 141.163 52.8793C138.206 52.8793 135.689 54.3767 133.976 56.4486C133.739 56.5885 133.488 56.8386 133.201 57.126C132.67 57.7453 131.608 58.3646 130.281 58.3646C130.104 58.3646 129.751 58.2761 129.751 58.2761C130.635 56.5952 131.255 54.8258 131.255 53.3217C131.255 50.8445 129.751 49.6059 128.07 49.6059C125.946 49.6059 123.735 51.4638 123.735 55.1796C123.735 57.3914 124.619 59.1609 126.123 60.134C124.354 62.9651 121.965 65.3539 121.611 65.3539C121.489 65.3539 121.451 65.2273 121.41 65.0908C121.392 65.0295 121.373 64.9663 121.346 64.9115C121.08 63.9383 120.815 61.9919 120.815 60.8418C120.815 58.7185 121.169 56.5952 121.965 54.3834C122.054 54.118 122.142 53.8526 122.142 53.6756C122.142 53.0563 121.7 52.7909 121.169 52.7909C120.107 52.7909 118.426 54.0295 117.984 55.3566C117.63 56.5952 117.453 58.3646 117.453 60.4879C117.453 60.8773 117.459 61.2636 117.472 61.6439C115.361 64.4901 112.755 65.4423 111.968 65.4423C110.995 65.4423 110.818 64.5576 110.995 64.2037C111.614 61.638 112.41 58.7185 113.118 56.6836C113.472 55.7104 113.649 54.8257 113.56 54.2949C113.383 53.3217 112.764 52.8793 111.879 52.8793C109.756 52.8793 106.394 55.0026 104.182 57.9222L104.89 54.7372C104.979 54.3834 104.979 54.1179 104.979 53.941C104.89 53.3217 104.536 53.0563 104.005 53.0563C101.528 53.0563 101.086 54.2949 100.82 55.5335C100.769 55.8409 100.065 59.472 99.4815 62.4737C97.5936 64.2064 95.4782 65.3539 94.8929 65.3539C94.1851 65.3539 93.9197 64.823 93.9197 64.3807C93.9197 64.0751 94.0955 63.2421 94.2617 62.455C94.3842 61.8746 94.5014 61.3191 94.539 61.0188C94.6274 60.6649 94.6274 60.3995 94.6274 60.2225C94.539 59.6917 94.0966 59.4263 93.5658 59.4263C92.5041 59.4263 91.0001 60.4879 90.6462 61.9919C90.1154 64.2922 88.5229 65.7962 87.4613 65.7962C86.1342 65.7962 85.4264 64.3807 85.2495 62.9651C84.8071 59.7802 86.842 54.6488 90.5578 54.6488C91.6194 54.6488 92.6811 55.0027 92.7695 56.0644C92.8767 57.0821 92.3351 57.3215 91.9108 57.5091C91.6343 57.6313 91.4076 57.7315 91.4425 58.0107C91.5309 58.7185 92.6811 58.8954 93.3888 58.8954C94.1851 58.8954 96.3969 58.3646 96.043 55.7989C95.7776 53.7641 93.6543 52.7024 91.0886 52.7024C85.1381 52.7024 81.1784 58.588 81.6064 63.2536C80.0953 65.0219 78.5855 66.0853 75.8714 67.4771C74.3674 68.2734 72.598 68.7157 71.0055 68.7157C66.0511 68.7157 63.6624 64.2037 63.22 60.3109C61.9814 50.4021 70.8286 36.689 76.9331 36.689C78.3486 36.689 79.5872 37.9276 79.8527 39.874C80.2065 42.8821 80.1181 45.0054 77.0216 47.571C76.6677 47.8365 76.5792 48.2788 76.7562 48.5442C77.0216 48.8981 77.9063 48.9866 79.5872 48.1019C82.9492 46.4209 84.0993 43.8552 83.7454 40.8472C83.3915 37.4853 80.472 34.7427 76.5792 34.7427C74.6328 34.7427 72.598 35.2735 70.7401 36.4236C62.6892 41.378 57.4694 52.5254 58.4426 61.0187C58.7964 63.7613 59.9466 66.6809 62.0699 68.7157C63.4854 70.0428 66.0511 71.6353 69.1476 71.6353C72.5095 71.6353 75.3406 70.3967 77.8178 68.8042ZM127.539 57.126C126.654 56.1528 125.946 54.6488 125.946 53.2333C125.946 52.437 126.212 51.5523 126.831 51.5523C127.362 51.5523 128.07 52.3485 128.07 54.2064C128.07 55.1796 127.893 56.1528 127.539 57.126Z" fill="#ACB0B9"/>
</g>
<defs>
<clipPath id="clip0_337_8140">
<rect width="88.4715" height="42.4663" fill="white" transform="translate(58 32)"/>
</clipPath>
</defs>
</svg>
