<svg width="204" height="106" viewBox="0 0 204 106" fill="none" xmlns="http://www.w3.org/2000/svg">
<rect x="0.5" y="0.5" width="203" height="105" rx="15.5" fill="white"/>
<rect x="0.5" y="0.5" width="203" height="105" rx="15.5" stroke="#E3E3E3"/>
<path fill-rule="evenodd" clip-rule="evenodd" d="M150.463 59.0398C146.342 66.0267 139.816 63.9993 137.856 62.412C137.022 62.978 135.559 64.2186 133.608 64.0754C129.454 63.7704 127.967 57.8343 127.967 57.8343C127.997 57.858 126.729 58.2715 126.045 58.2641C126.036 60.005 124.531 64.1635 120.47 64.1103C115.913 64.0508 114.986 57.2614 114.986 57.2614C114.986 57.2614 114.533 57.8911 112.808 58.5183C112.895 57.1809 112.832 63.9067 107.37 64.0056C103.051 64.0838 101.886 57.1567 101.886 57.1567C101.886 57.1567 101.137 57.9348 99.685 58.2047C99.7772 56.8455 99.6272 64.0284 94.1645 64.0056C90.4729 63.9902 89.2114 59.7385 89.3095 59.1483C89.4347 58.3962 88.0619 64.1113 84.476 64.0223C82.9962 63.9788 81.893 62.9074 81.2008 61.479C80.2741 62.5394 78.9286 64.0223 77.4192 64.0223C74.7099 64.0223 73.5155 61.7562 73.7178 55.2839C73.735 54.5162 73.6796 54.2143 72.9165 54.0994C72.4585 54.023 71.9894 53.8783 71.4931 53.802C71.334 54.3329 69.9847 63.8496 65.3452 64.0302C63.7888 64.0908 62.9377 62.7425 62.2388 61.7418C61.1674 63.1591 59.7531 64.0754 57.7383 64.0754C54.3253 64.0754 52 61.3163 52 57.9129C52 54.5093 54.3253 51.7506 57.7383 51.7506C58.3417 51.7506 58.5111 51.8371 59.0624 51.9979C57.9287 41.6756 60.6061 40.0624 62.9482 40.0624C65.1968 40.0624 69.0383 45.2814 63.633 58.5194C64.8331 62.4679 67.4202 62.2446 68.6634 54.1163C68.9164 52.464 68.2399 50.2344 69.2922 49.9232C71.2159 49.3545 71.42 51.0608 72.322 51.3451C73.2757 51.6456 73.8323 51.6163 74.7479 51.8075C76.3124 52.113 76.9229 52.9534 76.7323 54.8253C76.5034 57.1938 76.103 60.6411 77.3239 61.0612C78.2043 61.3664 79.8117 59.5406 80.0938 58.5416C80.3758 57.5426 80.4347 57.2006 80.4597 56.4679C80.4979 54.9019 80.5458 53.7539 80.8128 52.5695C80.9271 52.1112 81.0574 51.8077 81.5759 51.787C82.0026 51.7761 82.7828 51.6476 83.1263 51.915C83.5841 52.2589 83.5268 52.6079 83.4743 53.5265C82.9419 66.6236 87.0396 60.0854 88.2614 54.8503C87.8264 48.9307 88.1251 40.1708 91.8346 40.0239C93.7638 39.9475 94.6167 41.493 94.7106 42.6466C94.9759 45.9048 93.4895 51.302 91.5347 54.9316C90.4175 62.3375 96.4195 63.8018 97.3793 57.8904C95.809 57.1438 94.1119 54.1217 95.4929 52.649C96.2678 51.8225 99.4935 53.0098 99.5463 55.5996C101.129 55.1764 101.34 54.283 101.362 54.4311C100.927 48.5114 101.33 40.1709 105.04 40.024C106.969 39.9476 107.822 41.4931 107.916 42.6467C108.181 45.9049 106.695 51.3021 104.74 54.9317C103.623 62.3375 109.625 63.802 110.584 57.8906C109.422 57.6662 106.967 54.4518 108.383 52.6491C109.14 51.6857 112.354 53.6891 112.714 55.6853C114.234 55.2552 114.44 54.3902 114.462 54.5358C114.027 48.6163 114.43 40.2758 118.14 40.1289C120.069 40.0525 120.922 41.598 121.016 42.7516C121.281 46.0098 119.795 51.4071 117.84 55.0367C116.723 62.4426 122.725 63.9067 123.685 57.9953C122.087 57.7293 119.816 54.3353 121.644 52.5991C122.374 51.9053 125.164 53.7061 125.817 55.7606C126.724 55.7257 127.289 55.4127 127.41 55.3812C125.962 48.4318 127.04 40.0937 131.031 40.0241C133.188 39.9865 135.296 41.1902 134.371 47.8015C133.487 54.1095 130.312 56.7567 130.319 56.7972C130.504 57.5529 132.133 63.8774 136.237 60.5404C136.025 60.0594 135.812 59.568 135.693 58.9726C135.013 55.5048 136.349 51.5879 139.98 50.9549C142.061 50.5922 144.021 51.6051 144.33 53.8887C144.84 57.6253 141.466 60.3315 140.183 60.9185C139.608 60.592 145.392 64.3015 148.825 56.8676C149.024 56.4431 149.264 56.4791 149.575 56.6978C149.794 56.8524 151.045 58.0371 150.463 59.0398ZM60.2209 56.9947C60.0462 56.4726 59.6878 55.322 59.561 54.8235C58.863 54.2165 58.3647 54.1179 57.4687 54.1179C55.4775 54.1179 54.3055 55.9589 54.3055 57.944C54.3055 59.9291 55.5823 61.7703 57.5735 61.7703C59.2992 61.7703 60.6125 60.5971 61.0132 58.9362C60.7327 58.2887 60.4545 57.6936 60.2209 56.9947ZM62.8994 42.7948C61.5003 42.7948 61.0257 46.1324 61.1178 48.9798C61.1992 51.4971 61.9027 53.7134 62.2676 54.7064C62.3602 54.8309 62.343 54.7499 62.4257 54.8819C64.8551 49.5591 63.8475 42.7948 62.8994 42.7948ZM92.0344 42.8996C90.2261 42.6923 90.2378 50.2252 90.4623 51.915C91.4015 50.4125 93.0329 43.3042 92.0344 42.8996ZM105.239 42.8996C103.431 42.6923 103.443 50.2252 103.667 51.915C104.606 50.4125 106.238 43.3042 105.239 42.8996ZM118.34 43.0045C116.531 42.7971 116.543 50.3301 116.768 52.0199C117.707 50.5173 119.338 43.409 118.34 43.0045ZM131.23 42.4587C128.413 43.0244 129.069 52.4183 129.497 54.0658C132.816 49.5076 132.884 42.2875 131.23 42.4587ZM141.789 54.1978C141.646 53.5988 140.93 53.2787 140.436 53.3576C139.021 53.5508 137.649 55.3127 138.18 57.995C138.298 58.5924 138.594 59.1423 138.589 59.1241C141.755 57 142.024 55.3263 141.789 54.1978ZM82.1305 49.7136C81.7262 49.7137 81.3309 49.5938 80.9947 49.3692C80.6585 49.1447 80.3964 48.8254 80.2416 48.4519C80.0868 48.0784 80.0463 47.6673 80.1252 47.2708C80.204 46.8742 80.3988 46.5099 80.6846 46.224C80.9705 45.9381 81.3347 45.7434 81.7312 45.6645C82.1278 45.5856 82.5389 45.6261 82.9124 45.7808C83.286 45.9355 83.6052 46.1976 83.8298 46.5337C84.0544 46.8699 84.1743 47.2652 84.1743 47.6695C84.1743 47.9379 84.1215 48.2037 84.0187 48.4517C83.9161 48.6997 83.7656 48.925 83.5757 49.1148C83.3859 49.3046 83.1607 49.4552 82.9127 49.5579C82.6647 49.6607 82.399 49.7136 82.1305 49.7136Z" fill="#ACB0B9"/>
</svg>
