<svg width="204" height="106" viewBox="0 0 204 106" fill="none" xmlns="http://www.w3.org/2000/svg">
<rect x="0.5" y="0.5" width="203" height="105" rx="15.5" fill="white"/>
<rect x="0.5" y="0.5" width="203" height="105" rx="15.5" stroke="#E3E3E3"/>
<g clip-path="url(#clip0_337_8136)">
<path d="M79.6831 59.5003C76.8667 59.5003 75.0022 57.3668 74.4821 56.5404C75.1494 51.3124 77.1023 49.6595 79.6831 49.6595C82.2346 49.6595 84.2169 51.6584 84.2169 54.5798C84.2169 57.5013 82.2346 59.5003 79.6831 59.5003ZM79.6831 46.4496C75.0906 46.4496 72.5195 49.3808 71.7835 52.3984C70.9494 50.8607 70.3311 48.8042 69.8503 46.8917H63.5011V54.628C63.5011 57.4342 62.1959 59.5099 59.6445 59.5099C57.0931 59.5099 55.6309 57.4342 55.6309 54.628L55.6603 46.8917H52V54.628C52 56.8864 52.7458 58.9334 54.1098 60.3941C55.5131 61.9029 57.4267 62.6909 59.6445 62.6909C64.0605 62.6909 67.1419 59.3754 67.1419 54.628V49.4288C67.603 51.1394 68.7022 54.4261 70.8021 57.3092L68.8395 68.2553H72.5588L73.854 60.4998C74.276 60.8457 74.7274 61.1533 75.2083 61.432C76.4545 62.2008 77.8775 62.6333 79.3495 62.6813C79.3495 62.6813 79.5751 62.6909 79.6929 62.6909C84.2463 62.6909 87.8673 59.2409 87.8673 54.5798C87.8673 49.9189 84.2365 46.4496 79.6831 46.4496Z" fill="#ACB0B9"/>
<path d="M132.273 48.5454V46.8925H128.682V62.2015H132.322V56.2048C132.322 52.5144 132.666 49.862 137.72 50.208V46.7099C135.364 46.5369 133.529 47.0174 132.273 48.5454Z" fill="#ACB0B9"/>
<path d="M106.994 46.8928L104.354 57.5986L101.538 46.8928H96.9058L94.0795 57.5986L91.4496 46.8928H87.7598L91.8029 62.2116H96.1796L99.2217 51.3327L102.234 62.2116H106.611L110.89 46.8928H106.994Z" fill="#ACB0B9"/>
<path d="M118.907 59.5099C116.316 59.5099 114.373 57.5111 114.373 54.5798C114.373 51.6488 116.326 49.6595 118.907 49.6595C121.458 49.6595 123.441 51.6584 123.441 54.5798C123.441 57.5013 121.458 59.5099 118.907 59.5099ZM118.907 46.4496C114.324 46.4496 110.732 49.9285 110.732 54.5798C110.732 59.2312 114.324 62.6813 118.907 62.6813C123.46 62.6813 127.081 59.2312 127.081 54.5798C127.081 49.9285 123.47 46.4496 118.907 46.4496Z" fill="#ACB0B9"/>
<path d="M142.94 54.6763H143.784L148.867 62.2107H152.979L147.13 53.8594C149.966 52.7734 151.87 49.9384 151.87 46.892H148.239C148.239 50.1979 145.579 51.4472 142.94 51.4472V40.8472H139.289V62.2107H142.93L142.94 54.6763Z" fill="#ACB0B9"/>
</g>
<defs>
<clipPath id="clip0_337_8136">
<rect width="100.858" height="42.4663" fill="white" transform="translate(52 32)"/>
</clipPath>
</defs>
</svg>
