<svg width="204" height="106" viewBox="0 0 204 106" fill="none" xmlns="http://www.w3.org/2000/svg">
<rect x="0.5" y="0.5" width="203" height="105" rx="15.5" fill="white"/>
<rect x="0.5" y="0.5" width="203" height="105" rx="15.5" stroke="#E3E3E3"/>
<g clip-path="url(#clip0_337_8133)">
<path d="M60 39.0777V62.5503L63.0031 62.562V51.3845H70.2221V48.4272H62.9916V42.0234H72.4052V39.0777H60ZM77.7877 43.8514C78.3085 43.8514 78.8079 43.6429 79.1761 43.2717C79.5444 42.9005 79.7513 42.397 79.7513 41.8721C79.7513 41.3471 79.5444 40.8437 79.1761 40.4725C78.8079 40.1013 78.3085 39.8927 77.7877 39.8927C77.2669 39.8927 76.7675 40.1013 76.3992 40.4725C76.031 40.8437 75.8241 41.3471 75.8241 41.8721C75.8241 42.397 76.031 42.9005 76.3992 43.2717C76.7675 43.6429 77.2669 43.8514 77.7877 43.8514ZM76.2746 46.7971V62.562H79.2777V46.7971H76.2746Z" fill="#ACB0B9"/>
<path fill-rule="evenodd" clip-rule="evenodd" d="M90.3776 46.343C86.4043 46.343 83.6322 49.7312 83.6322 53.7597C83.6322 57.7883 86.4043 61.1764 90.3776 61.1764C92.2026 61.1764 93.7042 60.4778 94.8015 59.3135V61.4093C94.8091 62.0355 94.6935 62.657 94.4614 63.2379C94.2293 63.8188 93.8853 64.3476 93.4492 64.7937C93.0131 65.2397 92.4937 65.5942 91.9209 65.8367C91.3481 66.0792 90.7332 66.2048 90.112 66.2063C89.1533 66.2063 88.2062 65.8337 87.4554 65.2981L85.9538 67.9178C87.1149 68.6743 88.457 69.101 89.8386 69.1527C91.2201 69.2044 92.5899 68.8792 93.8035 68.2116C95.017 67.5439 96.0293 66.5584 96.7335 65.3592C97.4377 64.1599 97.8077 62.7913 97.8046 61.3976V46.8087H94.8015V48.2176C93.7042 47.0533 92.2026 46.3547 90.3776 46.3547V46.343ZM86.6237 53.7597C86.6237 51.2564 88.518 49.2887 90.7126 49.2887C92.9072 49.2887 94.7899 51.2681 94.7899 53.7597C94.7899 56.263 92.8956 58.2191 90.7126 58.2191C88.518 58.2191 86.6237 56.263 86.6237 53.7597Z" fill="#ACB0B9"/>
<path d="M108.593 49.2888C107.734 49.3041 106.915 49.6596 106.314 50.2784C105.714 50.8972 105.378 51.7296 105.382 52.5955V62.562H102.379V46.7972H105.382V48.2409C105.831 47.6407 106.415 47.1559 107.085 46.8261C107.755 46.4963 108.494 46.3308 109.239 46.3431C111.342 46.3431 112.959 47.391 113.883 48.9977C114.398 48.1923 115.104 47.5282 115.936 47.0649C116.769 46.6016 117.702 46.3536 118.653 46.3431C122.06 46.3431 124.197 49.1142 124.197 52.5489V62.562H121.217V52.5838C121.22 51.7179 120.885 50.8855 120.284 50.2668C119.684 49.648 118.865 49.2925 118.006 49.2772C117.147 49.2925 116.329 49.648 115.728 50.2668C115.127 50.8855 114.792 51.7179 114.795 52.5838V62.5504H111.792V52.5838C111.795 51.7199 111.462 50.8892 110.863 50.2708C110.265 49.6523 109.45 49.2955 108.593 49.2772V49.2888Z" fill="#ACB0B9"/>
<path fill-rule="evenodd" clip-rule="evenodd" d="M140.172 48.5902C139.49 47.8734 138.67 47.3044 137.762 46.918C136.855 46.5316 135.878 46.336 134.893 46.3431C130.435 46.3431 127.27 50.1387 127.27 54.6796C127.27 59.2204 130.435 63.0161 134.893 63.0161C135.878 63.0211 136.854 62.8245 137.761 62.4383C138.668 62.052 139.488 61.4841 140.172 60.7689V62.562H143.163V46.7971H140.16V48.5902H140.172ZM130.261 54.6796C130.261 51.6756 132.548 49.2888 135.217 49.2888C137.873 49.2888 140.172 51.6756 140.172 54.6796C140.172 57.6835 137.885 60.0587 135.217 60.0587C132.56 60.0587 130.261 57.6835 130.261 54.6796Z" fill="#ACB0B9"/>
</g>
<defs>
<clipPath id="clip0_337_8133">
<rect width="83.1632" height="42.4663" fill="white" transform="translate(60 32)"/>
</clipPath>
</defs>
</svg>
