<svg width="204" height="106" viewBox="0 0 204 106" fill="none" xmlns="http://www.w3.org/2000/svg">
<rect x="0.5" y="0.5" width="203" height="105" rx="15.5" fill="white"/>
<rect x="0.5" y="0.5" width="203" height="105" rx="15.5" stroke="#E3E3E3"/>
<g clip-path="url(#clip0_337_8138)">
<path fill-rule="evenodd" clip-rule="evenodd" d="M133.11 59.9724C136.029 59.9724 138.403 57.6457 138.403 54.7857C138.403 51.9257 136.029 49.5989 133.11 49.5989C130.192 49.5989 127.817 51.9257 127.817 54.7857C127.817 57.6457 130.192 59.9724 133.11 59.9724ZM138.403 41.8956H138.546H140.91V62.4472H138.403V60.3952C136.956 61.7096 135.09 62.4297 133.11 62.4297C128.809 62.4297 125.31 59.0005 125.31 54.7857C125.31 50.5706 128.809 47.1416 133.11 47.1416C135.09 47.1416 136.956 47.8616 138.403 49.1761V41.8956ZM81.1106 59.8819C84.0288 59.8819 86.4031 57.5552 86.4031 54.6951C86.4031 51.8352 84.0288 49.5085 81.1106 49.5085C78.1921 49.5085 75.8179 51.8352 75.8179 54.6951C75.8179 57.5552 78.1921 59.8819 81.1106 59.8819ZM75.8179 49.0858C77.265 47.7713 79.1313 47.0512 81.1106 47.0512C85.4114 47.0512 88.9104 50.4803 88.9104 54.6951C88.9104 58.91 85.4114 62.3391 81.1106 62.3391C79.1313 62.3391 77.265 61.6192 75.8179 60.3046V67.5851H73.3105V47.0335H75.8179V49.0858ZM93.6945 53.5017C94.2589 51.1789 96.3615 49.5111 98.7599 49.5111C101.127 49.5111 103.11 51.1433 103.638 53.5017H93.6945ZM98.7599 47.0335C94.5235 47.0335 91.0771 50.491 91.0771 54.7404C91.0771 58.9899 94.5235 62.4472 98.7599 62.4472C101.132 62.4472 103.31 61.5563 104.735 60.0028L105.475 59.1954L105.57 59.0912L105.466 58.9951L103.857 57.51L103.753 57.414L103.657 57.5182L102.917 58.3258C101.973 59.3552 100.419 59.9698 98.7599 59.9698C96.3615 59.9698 94.259 58.302 93.6945 55.9791H106.243V54.7404C106.243 50.4188 102.956 47.0335 98.7599 47.0335ZM155.736 54.7404C155.736 57.6239 153.362 59.9698 150.443 59.9698C147.525 59.9698 145.15 57.6239 145.15 54.7404C145.15 51.8569 147.525 49.511 150.443 49.511C153.362 49.511 155.736 51.8569 155.736 54.7404ZM150.443 47.0335C146.142 47.0335 142.643 50.4908 142.643 54.7404C142.643 58.9899 146.142 62.4472 150.443 62.4472C154.744 62.4472 158.243 58.9899 158.243 54.7404C158.243 50.4908 154.744 47.0335 150.443 47.0335ZM115.56 47.0335C113.818 47.0335 112.158 47.697 110.851 48.9088V47.0335H108.41V62.4472H110.851V54.5814C110.851 51.775 112.964 49.4918 115.56 49.4918C118.157 49.4918 120.269 51.775 120.269 54.5814V62.4472H122.71V54.5814C122.71 50.4195 119.502 47.0335 115.56 47.0335Z" fill="#ACB0B9"/>
<path fill-rule="evenodd" clip-rule="evenodd" d="M45 56.5754H56.7961V68.1095L68.5924 56.5754V45.0414H56.7961L45 56.5754Z" fill="#ACB0B9"/>
</g>
<defs>
<clipPath id="clip0_337_8138">
<rect width="113.244" height="42.4663" fill="white" transform="translate(45 32)"/>
</clipPath>
</defs>
</svg>
