<svg width="32" height="32" viewBox="0 0 32 32" fill="none" xmlns="http://www.w3.org/2000/svg">
<rect width="32" height="32" rx="8" fill="#F1F2F3"/>
<g clip-path="url(#clip0_308_7001)">
<path d="M12.3333 26C14.1733 26 15.6667 24.5066 15.6667 22.6666V19.3333H12.3333C10.4933 19.3333 9 20.8266 9 22.6666C9 24.5066 10.4933 26 12.3333 26Z" fill="#0ACF83"/>
<path d="M9 16C9 14.16 10.4933 12.6667 12.3333 12.6667H15.6667V19.3334H12.3333C10.4933 19.3334 9 17.84 9 16Z" fill="#A259FF"/>
<path d="M9 9.33333C9 7.49333 10.4933 6 12.3333 6H15.6667V12.6667H12.3333C10.4933 12.6667 9 11.1733 9 9.33333Z" fill="#F24E1E"/>
<path d="M15.666 6H18.9993C20.8393 6 22.3327 7.49333 22.3327 9.33333C22.3327 11.1733 20.8393 12.6667 18.9993 12.6667H15.666V6Z" fill="#FF7262"/>
<path d="M22.3327 16C22.3327 17.84 20.8393 19.3334 18.9993 19.3334C17.1593 19.3334 15.666 17.84 15.666 16C15.666 14.16 17.1593 12.6667 18.9993 12.6667C20.8393 12.6667 22.3327 14.16 22.3327 16Z" fill="#1ABCFE"/>
</g>
<defs>
<clipPath id="clip0_308_7001">
<rect width="13.3333" height="20" fill="white" transform="translate(9 6)"/>
</clipPath>
</defs>
</svg>
