<svg width="400" height="375" viewBox="0 0 400 375" fill="none" xmlns="http://www.w3.org/2000/svg">
<g filter="url(#filter0_b_431_28654)">
<path d="M245.424 263.386C245.469 263.304 245.488 263.21 245.479 263.117C245.471 263.023 245.434 262.935 245.374 262.862C245.314 262.79 245.234 262.737 245.144 262.711C245.053 262.685 244.958 262.686 244.868 262.716L229.221 267.418C229.126 267.446 229.043 267.504 228.982 267.583C228.922 267.662 228.888 267.758 228.885 267.858C228.882 267.957 228.911 268.055 228.967 268.137C229.023 268.219 229.103 268.281 229.197 268.315L234.824 270.347C235.142 270.461 235.424 270.659 235.64 270.919C235.856 271.179 235.998 271.492 236.052 271.826L236.995 277.736C237.011 277.834 237.057 277.925 237.128 277.995C237.198 278.066 237.288 278.112 237.387 278.128C237.485 278.144 237.585 278.128 237.674 278.084C237.763 278.039 237.835 277.968 237.881 277.88L245.424 263.386Z" fill="#050810"/>
<path d="M245.424 263.386C245.469 263.304 245.488 263.21 245.479 263.117C245.471 263.023 245.434 262.935 245.374 262.862C245.314 262.79 245.234 262.737 245.144 262.711C245.053 262.685 244.958 262.686 244.868 262.716L229.221 267.418C229.126 267.446 229.043 267.504 228.982 267.583C228.922 267.662 228.888 267.758 228.885 267.858C228.882 267.957 228.911 268.055 228.967 268.137C229.023 268.219 229.103 268.281 229.197 268.315L234.824 270.347C235.142 270.461 235.424 270.659 235.64 270.919C235.856 271.179 235.998 271.492 236.052 271.826L236.995 277.736C237.011 277.834 237.057 277.925 237.128 277.995C237.198 278.066 237.288 278.112 237.387 278.128C237.485 278.144 237.585 278.128 237.674 278.084C237.763 278.039 237.835 277.968 237.881 277.88L245.424 263.386Z" stroke="url(#paint0_linear_431_28654)" stroke-width="1.06376" stroke-linecap="round" stroke-linejoin="round"/>
</g>
<rect x="233.68" y="139.568" width="250.535" height="111.053" transform="rotate(-3.58801 233.68 139.568)" stroke="#BCBCBC" stroke-opacity="0.4" stroke-width="1.06376" stroke-linecap="round" stroke-dasharray="4.26 4.26"/>
<rect x="247.484" y="160.957" width="226.548" height="13.3263" rx="6.66317" transform="rotate(-3.58801 247.484 160.957)" fill="#E3E5E8"/>
<rect x="248.652" y="179.577" width="123.491" height="13.3263" rx="6.66317" transform="rotate(-3.58801 248.652 179.577)" fill="#E3E5E8"/>
<rect x="250.691" y="212.092" width="45.7416" height="14.8926" rx="7.44631" transform="rotate(-3.58801 250.691 212.092)" fill="#050810"/>
<rect x="249.893" y="199.352" width="72.3356" height="6.38255" rx="3.19128" transform="rotate(-3.58801 249.893 199.352)" fill="#E3E5E8"/>
<rect x="327.395" y="194.492" width="58.5068" height="6.38255" rx="3.19128" transform="rotate(-3.58801 327.395 194.492)" fill="#E3E5E8"/>
<rect x="391.094" y="190.498" width="36.1678" height="6.38255" rx="3.19128" transform="rotate(-3.58801 391.094 190.498)" fill="black" fill-opacity="0.1"/>
<rect x="229.91" y="136.244" width="6.38255" height="6.38255" transform="rotate(-3.58801 229.91 136.244)" fill="#DBDBDB"/>
<rect x="229.91" y="136.244" width="6.38255" height="6.38255" transform="rotate(-3.58801 229.91 136.244)" stroke="#B2B2B2" stroke-width="1.06376"/>
<rect x="236.859" y="247.079" width="6.38255" height="6.38255" transform="rotate(-3.58801 236.859 247.079)" fill="#DBDBDB"/>
<rect x="236.859" y="247.079" width="6.38255" height="6.38255" transform="rotate(-3.58801 236.859 247.079)" stroke="#B2B2B2" stroke-width="1.06376"/>
<g filter="url(#filter1_b_431_28654)">
<path d="M194.097 161.792C194.052 161.71 194.033 161.617 194.042 161.525C194.05 161.432 194.087 161.345 194.146 161.273C194.205 161.201 194.285 161.149 194.374 161.123C194.463 161.098 194.558 161.099 194.646 161.128L210.129 165.781C210.223 165.809 210.306 165.866 210.366 165.945C210.425 166.023 210.459 166.118 210.462 166.216C210.464 166.314 210.436 166.411 210.381 166.492C210.325 166.573 210.246 166.635 210.153 166.669L204.585 168.679C204.27 168.792 203.991 168.988 203.778 169.245C203.564 169.503 203.424 169.813 203.37 170.143L202.437 175.991C202.421 176.088 202.375 176.178 202.306 176.247C202.236 176.317 202.147 176.362 202.049 176.378C201.952 176.394 201.853 176.379 201.765 176.335C201.677 176.29 201.605 176.22 201.56 176.133L194.097 161.792Z" fill="#050810"/>
<path d="M194.097 161.792C194.052 161.71 194.033 161.617 194.042 161.525C194.05 161.432 194.087 161.345 194.146 161.273C194.205 161.201 194.285 161.149 194.374 161.123C194.463 161.098 194.558 161.099 194.646 161.128L210.129 165.781C210.223 165.809 210.306 165.866 210.366 165.945C210.425 166.023 210.459 166.118 210.462 166.216C210.464 166.314 210.436 166.411 210.381 166.492C210.325 166.573 210.246 166.635 210.153 166.669L204.585 168.679C204.27 168.792 203.991 168.988 203.778 169.245C203.564 169.503 203.424 169.813 203.37 170.143L202.437 175.991C202.421 176.088 202.375 176.178 202.306 176.247C202.236 176.317 202.147 176.362 202.049 176.378C201.952 176.394 201.853 176.379 201.765 176.335C201.677 176.29 201.605 176.22 201.56 176.133L194.097 161.792Z" stroke="url(#paint1_linear_431_28654)" stroke-width="1.05258" stroke-linecap="round" stroke-linejoin="round"/>
</g>
<g clip-path="url(#clip0_431_28654)">
<rect x="-19.8652" y="28.4288" width="224.168" height="13.1864" rx="6.59318" transform="rotate(7.29089 -19.8652 28.4288)" fill="#E3E5E8"/>
<rect x="-22.209" y="46.7405" width="122.194" height="13.1864" rx="6.59318" transform="rotate(7.29089 -22.209 46.7405)" fill="#E3E5E8"/>
<rect x="-26.2988" y="78.7164" width="45.2611" height="14.7362" rx="7.36809" transform="rotate(7.29089 -26.2988 78.7164)" fill="#050810"/>
<rect x="-24.6953" y="66.1876" width="71.5757" height="6.3155" rx="3.15775" transform="rotate(7.29089 -24.6953 66.1876)" fill="#E3E5E8"/>
<rect x="51.5215" y="75.939" width="57.8921" height="6.3155" rx="3.15775" transform="rotate(7.29089 51.5215 75.939)" fill="#E3E5E8"/>
<rect x="114.166" y="83.9537" width="35.7879" height="6.3155" rx="3.15775" transform="rotate(7.29089 114.166 83.9537)" fill="#E3E5E8"/>
</g>
<rect x="-29.2832" y="5.0675" width="247.903" height="109.886" transform="rotate(7.29089 -29.2832 5.0675)" stroke="#BCBCBC" stroke-opacity="0.4" stroke-width="1.05258" stroke-linecap="round"/>
<rect x="214.078" y="32.6582" width="6.3155" height="6.3155" transform="rotate(7.29089 214.078 32.6582)" fill="#DBDBDB"/>
<rect x="214.078" y="32.6582" width="6.3155" height="6.3155" transform="rotate(7.29089 214.078 32.6582)" stroke="#B2B2B2" stroke-width="1.05258"/>
<rect x="200.133" y="141.656" width="6.3155" height="6.3155" transform="rotate(7.29089 200.133 141.656)" fill="#DBDBDB"/>
<rect x="200.133" y="141.656" width="6.3155" height="6.3155" transform="rotate(7.29089 200.133 141.656)" stroke="#B2B2B2" stroke-width="1.05258"/>
<g filter="url(#filter2_b_431_28654)">
<path d="M180.167 359.792C180.122 359.71 180.103 359.617 180.112 359.525C180.121 359.432 180.157 359.345 180.216 359.273C180.275 359.201 180.355 359.149 180.444 359.123C180.533 359.098 180.628 359.099 180.717 359.128L196.199 363.781C196.293 363.809 196.376 363.866 196.436 363.945C196.496 364.023 196.529 364.118 196.532 364.216C196.535 364.314 196.506 364.411 196.451 364.492C196.396 364.573 196.316 364.635 196.224 364.669L190.655 366.679C190.34 366.792 190.062 366.988 189.848 367.245C189.635 367.503 189.494 367.813 189.441 368.143L188.507 373.991C188.491 374.088 188.446 374.178 188.376 374.247C188.307 374.317 188.217 374.362 188.12 374.378C188.023 374.394 187.923 374.379 187.835 374.335C187.747 374.29 187.676 374.22 187.63 374.133L180.167 359.792Z" fill="#050810"/>
<path d="M180.167 359.792C180.122 359.71 180.103 359.617 180.112 359.525C180.121 359.432 180.157 359.345 180.216 359.273C180.275 359.201 180.355 359.149 180.444 359.123C180.533 359.098 180.628 359.099 180.717 359.128L196.199 363.781C196.293 363.809 196.376 363.866 196.436 363.945C196.496 364.023 196.529 364.118 196.532 364.216C196.535 364.314 196.506 364.411 196.451 364.492C196.396 364.573 196.316 364.635 196.224 364.669L190.655 366.679C190.34 366.792 190.062 366.988 189.848 367.245C189.635 367.503 189.494 367.813 189.441 368.143L188.507 373.991C188.491 374.088 188.446 374.178 188.376 374.247C188.307 374.317 188.217 374.362 188.12 374.378C188.023 374.394 187.923 374.379 187.835 374.335C187.747 374.29 187.676 374.22 187.63 374.133L180.167 359.792Z" stroke="url(#paint2_linear_431_28654)" stroke-width="1.05258" stroke-linecap="round" stroke-linejoin="round"/>
</g>
<g clip-path="url(#clip1_431_28654)">
<rect x="-33.7949" y="226.429" width="101.321" height="13.1864" rx="6.59318" transform="rotate(7.29089 -33.7949 226.429)" fill="#E3E5E8"/>
<rect x="-36.1406" y="244.74" width="222.424" height="13.1864" rx="6.59318" transform="rotate(7.29089 -36.1406 244.74)" fill="#E3E5E8"/>
<rect x="-40.2305" y="276.717" width="45.2611" height="14.7362" rx="7.36809" transform="rotate(7.29089 -40.2305 276.717)" fill="#050810"/>
<rect x="-38.627" y="264.188" width="71.5757" height="6.3155" rx="3.15775" transform="rotate(7.29089 -38.627 264.188)" fill="#E3E5E8"/>
<rect x="37.5918" y="273.939" width="57.8921" height="6.3155" rx="3.15775" transform="rotate(7.29089 37.5918 273.939)" fill="#E3E5E8"/>
<rect x="100.234" y="281.954" width="35.7879" height="6.3155" rx="3.15775" transform="rotate(7.29089 100.234 281.954)" fill="#E3E5E8"/>
</g>
<rect x="-43.2129" y="203.068" width="247.903" height="109.886" transform="rotate(7.29089 -43.2129 203.068)" stroke="#BCBCBC" stroke-opacity="0.4" stroke-width="1.05258" stroke-linecap="round"/>
<rect x="200.148" y="230.658" width="6.3155" height="6.3155" transform="rotate(7.29089 200.148 230.658)" fill="#DBDBDB"/>
<rect x="200.148" y="230.658" width="6.3155" height="6.3155" transform="rotate(7.29089 200.148 230.658)" stroke="#B2B2B2" stroke-width="1.05258"/>
<rect x="186.203" y="339.656" width="6.3155" height="6.3155" transform="rotate(7.29089 186.203 339.656)" fill="#DBDBDB"/>
<rect x="186.203" y="339.656" width="6.3155" height="6.3155" transform="rotate(7.29089 186.203 339.656)" stroke="#B2B2B2" stroke-width="1.05258"/>
<defs>
<filter id="filter0_b_431_28654" x="217.716" y="251.523" width="38.9353" height="37.7803" filterUnits="userSpaceOnUse" color-interpolation-filters="sRGB">
<feFlood flood-opacity="0" result="BackgroundImageFix"/>
<feGaussianBlur in="BackgroundImageFix" stdDeviation="5.3188"/>
<feComposite in2="SourceAlpha" operator="in" result="effect1_backgroundBlur_431_28654"/>
<feBlend mode="normal" in="SourceGraphic" in2="effect1_backgroundBlur_431_28654" result="shape"/>
</filter>
<filter id="filter1_b_431_28654" x="182.988" y="150.053" width="38.5263" height="37.3833" filterUnits="userSpaceOnUse" color-interpolation-filters="sRGB">
<feFlood flood-opacity="0" result="BackgroundImageFix"/>
<feGaussianBlur in="BackgroundImageFix" stdDeviation="5.26292"/>
<feComposite in2="SourceAlpha" operator="in" result="effect1_backgroundBlur_431_28654"/>
<feBlend mode="normal" in="SourceGraphic" in2="effect1_backgroundBlur_431_28654" result="shape"/>
</filter>
<filter id="filter2_b_431_28654" x="169.058" y="348.053" width="38.5263" height="37.3832" filterUnits="userSpaceOnUse" color-interpolation-filters="sRGB">
<feFlood flood-opacity="0" result="BackgroundImageFix"/>
<feGaussianBlur in="BackgroundImageFix" stdDeviation="5.26292"/>
<feComposite in2="SourceAlpha" operator="in" result="effect1_backgroundBlur_431_28654"/>
<feBlend mode="normal" in="SourceGraphic" in2="effect1_backgroundBlur_431_28654" result="shape"/>
</filter>
<linearGradient id="paint0_linear_431_28654" x1="237.516" y1="261.984" x2="238.682" y2="281.126" gradientUnits="userSpaceOnUse">
<stop stop-color="white"/>
<stop offset="1" stop-color="white"/>
</linearGradient>
<linearGradient id="paint1_linear_431_28654" x1="201.921" y1="160.404" x2="200.768" y2="179.345" gradientUnits="userSpaceOnUse">
<stop stop-color="white"/>
<stop offset="1" stop-color="white"/>
</linearGradient>
<linearGradient id="paint2_linear_431_28654" x1="187.992" y1="358.404" x2="186.838" y2="377.345" gradientUnits="userSpaceOnUse">
<stop stop-color="white"/>
<stop offset="1" stop-color="white"/>
</linearGradient>
<clipPath id="clip0_431_28654">
<rect x="-29.2832" y="5.0675" width="247.903" height="109.886" transform="rotate(7.29089 -29.2832 5.0675)" fill="white"/>
</clipPath>
<clipPath id="clip1_431_28654">
<rect x="-43.2129" y="203.068" width="247.903" height="109.886" transform="rotate(7.29089 -43.2129 203.068)" fill="white"/>
</clipPath>
</defs>
</svg>
