<svg width="382" height="382" viewBox="0 0 382 382" fill="none" xmlns="http://www.w3.org/2000/svg">
<path d="M126 153.133C126 138.222 138.088 126.133 153 126.133H229C243.912 126.133 256 138.222 256 153.133V229.133C256 244.045 243.912 256.133 229 256.133H153C138.088 256.133 126 244.045 126 229.133V153.133Z" stroke="url(#paint0_radial_337_8176)"/>
<path d="M112 139.133C112 124.222 124.088 112.133 139 112.133H243C257.912 112.133 270 124.222 270 139.133V243.133C270 258.045 257.912 270.133 243 270.133H139C124.088 270.133 112 258.045 112 243.133V139.133Z" stroke="url(#paint1_radial_337_8176)"/>
<path d="M98 125.133C98 110.222 110.088 98.1333 125 98.1333H257C271.912 98.1333 284 110.222 284 125.133V257.133C284 272.045 271.912 284.133 257 284.133H125C110.088 284.133 98 272.045 98 257.133V125.133Z" stroke="url(#paint2_radial_337_8176)"/>
<path d="M87 114.133C87 99.2216 99.0883 87.1333 114 87.1333H268C282.912 87.1333 295 99.2216 295 114.133V268.133C295 283.045 282.912 295.133 268 295.133H114C99.0883 295.133 87 283.045 87 268.133V114.133Z" stroke="url(#paint3_radial_337_8176)"/>
<path d="M72 99.1333C72 84.2216 84.0883 72.1333 99 72.1333H283C297.912 72.1333 310 84.2216 310 99.1333V283.133C310 298.045 297.912 310.133 283 310.133H99C84.0883 310.133 72 298.045 72 283.133V99.1333Z" stroke="url(#paint4_radial_337_8176)"/>
<path d="M57 84.1333C57 69.2216 69.0883 57.1333 84 57.1333H298C312.912 57.1333 325 69.2216 325 84.1333V298.133C325 313.045 312.912 325.133 298 325.133H84C69.0883 325.133 57 313.045 57 298.133V84.1333Z" stroke="url(#paint5_radial_337_8176)"/>
<path d="M43 70.1333C43 55.2216 55.0883 43.1333 70 43.1333H312C326.912 43.1333 339 55.2216 339 70.1333V312.133C339 327.045 326.912 339.133 312 339.133H70C55.0883 339.133 43 327.045 43 312.133V70.1333Z" stroke="url(#paint6_radial_337_8176)"/>
<path d="M28 55.1333C28 40.2216 40.0883 28.1333 55 28.1333H327C341.912 28.1333 354 40.2216 354 55.1333V327.133C354 342.045 341.912 354.133 327 354.133H55C40.0883 354.133 28 342.045 28 327.133V55.1333Z" stroke="url(#paint7_radial_337_8176)"/>
<path d="M13 40.1333C13 25.2216 25.0883 13.1333 40 13.1333H342C356.912 13.1333 369 25.2216 369 40.1333V342.133C369 357.045 356.912 369.133 342 369.133H40C25.0883 369.133 13 357.045 13 342.133V40.1333Z" stroke="url(#paint8_radial_337_8176)"/>
<path d="M13 40.1333C13 25.2216 25.0883 13.1333 40 13.1333H342C356.912 13.1333 369 25.2216 369 40.1333V342.133C369 357.045 356.912 369.133 342 369.133H40C25.0883 369.133 13 357.045 13 342.133V40.1333Z" stroke="url(#paint9_radial_337_8176)"/>
<path d="M1 28.1333C1 13.2216 13.0883 1.1333 28 1.1333H354C368.912 1.1333 381 13.2216 381 28.1333V354.133C381 369.045 368.912 381.133 354 381.133H28C13.0883 381.133 1 369.045 1 354.133V28.1333Z" stroke="url(#paint10_radial_337_8176)"/>
<g filter="url(#filter0_d_337_8176)">
<rect x="141" y="141.133" width="100" height="100" rx="18.75" fill="white"/>
<rect x="141" y="141.133" width="100" height="100" rx="18.75" stroke="#E4E4E4"/>
<path d="M183.023 174.598C183.023 166.471 189.612 159.883 197.738 159.883H214.906C214.906 168.01 208.318 174.598 200.191 174.598H183.023Z" fill="#050810"/>
<path d="M183.023 174.599L183.023 208.233C183.023 216.36 176.435 222.948 168.308 222.948L168.308 189.313C168.309 181.187 174.897 174.599 183.023 174.599Z" fill="#050810"/>
<path d="M182.523 185.472C182.523 193.324 188.888 199.688 196.74 199.688H213.799C213.799 191.837 207.434 185.472 199.583 185.472H182.523Z" fill="#050810"/>
</g>
<path d="M140.916 153.317C141.104 153.249 141.295 153.181 141.455 153.139C141.608 153.099 141.903 153.033 142.219 153.143C142.581 153.268 142.865 153.553 142.991 153.915C143.1 154.231 143.034 154.525 142.995 154.678C142.953 154.839 142.884 155.029 142.817 155.217L138.043 168.517C137.959 168.75 137.879 168.974 137.799 169.147C137.732 169.292 137.58 169.611 137.249 169.792C136.886 169.989 136.45 169.995 136.083 169.807C135.747 169.635 135.586 169.321 135.515 169.177C135.431 169.006 135.345 168.784 135.255 168.553L133.106 163.027L127.58 160.878C127.349 160.788 127.127 160.702 126.957 160.618C126.813 160.547 126.498 160.387 126.327 160.051C126.139 159.683 126.145 159.247 126.342 158.885C126.522 158.554 126.841 158.401 126.987 158.334C127.159 158.255 127.383 158.174 127.617 158.091L140.916 153.317Z" fill="#050810" stroke="white" stroke-width="1.5" stroke-linecap="round" stroke-linejoin="round"/>
<g filter="url(#filter1_bdi_337_8176)">
<rect x="64" y="167.133" width="68" height="24" rx="8" fill="#050810"/>
<path d="M76.6096 184.133L74.1496 175.193H75.6496L77.6416 182.933H77.2696L79.3336 175.193H80.8096L82.8736 182.933H82.4896L84.4936 175.193H85.9816L83.5336 184.133H81.9376L79.8616 176.513H80.2816L78.1936 184.133H76.6096ZM86.9033 184.133V177.641H88.2593V184.133H86.9033ZM86.9033 176.753V175.193H88.2593V176.753H86.9033ZM89.8447 184.133V175.049H91.2007V184.133H89.8447ZM92.7861 184.133V175.049H94.1421V184.133H92.7861ZM95.7275 184.133V177.641H97.0835V184.133H95.7275ZM95.7275 176.753V175.193H97.0835V176.753H95.7275ZM100.613 184.277C100.173 184.277 99.785 184.201 99.449 184.049C99.121 183.889 98.865 183.673 98.681 183.401C98.497 183.121 98.405 182.793 98.405 182.417C98.405 182.065 98.481 181.749 98.633 181.469C98.793 181.189 99.037 180.953 99.365 180.761C99.693 180.569 100.105 180.433 100.601 180.353L102.857 179.981V181.049L100.865 181.397C100.505 181.461 100.241 181.577 100.073 181.745C99.905 181.905 99.821 182.113 99.821 182.369C99.821 182.617 99.913 182.821 100.097 182.981C100.289 183.133 100.533 183.209 100.829 183.209C101.197 183.209 101.517 183.129 101.789 182.969C102.069 182.809 102.285 182.597 102.437 182.333C102.589 182.061 102.665 181.761 102.665 181.433V179.765C102.665 179.445 102.545 179.185 102.305 178.985C102.073 178.777 101.761 178.673 101.369 178.673C101.009 178.673 100.693 178.769 100.421 178.961C100.157 179.145 99.961 179.385 99.833 179.681L98.705 179.117C98.825 178.797 99.021 178.517 99.293 178.277C99.565 178.029 99.881 177.837 100.241 177.701C100.609 177.565 100.997 177.497 101.405 177.497C101.917 177.497 102.369 177.593 102.761 177.785C103.161 177.977 103.469 178.245 103.685 178.589C103.909 178.925 104.021 179.317 104.021 179.765V184.133H102.725V182.957L103.001 182.993C102.849 183.257 102.653 183.485 102.413 183.677C102.181 183.869 101.913 184.017 101.609 184.121C101.313 184.225 100.981 184.277 100.613 184.277ZM105.606 184.133V177.641H106.902V179.045L106.734 178.829C106.87 178.389 107.118 178.057 107.478 177.833C107.838 177.609 108.25 177.497 108.714 177.497C109.234 177.497 109.694 177.637 110.094 177.917C110.502 178.189 110.774 178.553 110.91 179.009L110.526 179.045C110.718 178.525 111.01 178.137 111.402 177.881C111.802 177.625 112.258 177.497 112.77 177.497C113.218 177.497 113.622 177.601 113.982 177.809C114.35 178.017 114.642 178.305 114.858 178.673C115.074 179.041 115.182 179.461 115.182 179.933V184.133H113.826V180.305C113.826 179.977 113.766 179.701 113.646 179.477C113.534 179.245 113.374 179.069 113.166 178.949C112.966 178.821 112.73 178.757 112.458 178.757C112.186 178.757 111.946 178.821 111.738 178.949C111.53 179.069 111.366 179.245 111.246 179.477C111.126 179.709 111.066 179.985 111.066 180.305V184.133H109.722V180.305C109.722 179.977 109.662 179.701 109.542 179.477C109.43 179.245 109.27 179.069 109.062 178.949C108.862 178.821 108.622 178.757 108.342 178.757C108.07 178.757 107.83 178.821 107.622 178.949C107.414 179.069 107.25 179.245 107.13 179.477C107.018 179.709 106.962 179.985 106.962 180.305V184.133H105.606ZM119.034 184.277C118.37 184.277 117.786 184.113 117.282 183.785C116.786 183.457 116.438 183.017 116.238 182.465L117.282 181.973C117.458 182.341 117.698 182.633 118.002 182.849C118.314 183.065 118.658 183.173 119.034 183.173C119.354 183.173 119.614 183.101 119.814 182.957C120.014 182.813 120.114 182.617 120.114 182.369C120.114 182.209 120.07 182.081 119.982 181.985C119.894 181.881 119.782 181.797 119.646 181.733C119.518 181.669 119.386 181.621 119.25 181.589L118.23 181.301C117.67 181.141 117.25 180.901 116.97 180.581C116.698 180.253 116.562 179.873 116.562 179.441C116.562 179.049 116.662 178.709 116.862 178.421C117.062 178.125 117.338 177.897 117.69 177.737C118.042 177.577 118.438 177.497 118.878 177.497C119.47 177.497 119.998 177.645 120.462 177.941C120.926 178.229 121.254 178.633 121.446 179.153L120.402 179.645C120.274 179.333 120.07 179.085 119.79 178.901C119.518 178.717 119.21 178.625 118.866 178.625C118.57 178.625 118.334 178.697 118.158 178.841C117.982 178.977 117.894 179.157 117.894 179.381C117.894 179.533 117.934 179.661 118.014 179.765C118.094 179.861 118.198 179.941 118.326 180.005C118.454 180.061 118.586 180.109 118.722 180.149L119.778 180.461C120.314 180.613 120.726 180.853 121.014 181.181C121.302 181.501 121.446 181.885 121.446 182.333C121.446 182.717 121.342 183.057 121.134 183.353C120.934 183.641 120.654 183.869 120.294 184.037C119.934 184.197 119.514 184.277 119.034 184.277Z" fill="white"/>
</g>
<path d="M256.084 255.317C255.896 255.249 255.705 255.181 255.545 255.139C255.392 255.099 255.097 255.033 254.781 255.143C254.419 255.268 254.135 255.553 254.009 255.915C253.9 256.231 253.966 256.525 254.005 256.678C254.047 256.839 254.116 257.029 254.183 257.217L258.957 270.517C259.041 270.75 259.121 270.974 259.201 271.147C259.268 271.292 259.42 271.611 259.751 271.792C260.114 271.989 260.55 271.995 260.917 271.807C261.253 271.635 261.414 271.321 261.485 271.177C261.569 271.006 261.655 270.784 261.745 270.553L263.894 265.027L269.42 262.878C269.651 262.788 269.873 262.702 270.043 262.618C270.187 262.547 270.502 262.387 270.673 262.051C270.861 261.683 270.855 261.247 270.658 260.885C270.478 260.554 270.159 260.401 270.013 260.334C269.841 260.255 269.617 260.174 269.383 260.091L256.084 255.317Z" fill="#050810" stroke="white" stroke-width="1.5" stroke-linecap="round" stroke-linejoin="round"/>
<g filter="url(#filter2_bdi_337_8176)">
<rect x="268" y="269.133" width="65" height="24" rx="8" fill="#050810"/>
<path d="M278.936 286.133V277.193H280.256L283.616 281.849H282.956L286.256 277.193H287.576V286.133H286.172V278.861L286.7 279.005L283.328 283.613H283.184L279.884 279.005L280.352 278.861V286.133H278.936ZM289.292 286.133V279.641H290.648V286.133H289.292ZM289.292 278.753V277.193H290.648V278.753H289.292ZM295.317 286.277C294.669 286.277 294.093 286.129 293.589 285.833C293.093 285.529 292.697 285.121 292.401 284.609C292.113 284.097 291.969 283.517 291.969 282.869C291.969 282.229 292.113 281.653 292.401 281.141C292.689 280.629 293.085 280.229 293.589 279.941C294.093 279.645 294.669 279.497 295.317 279.497C295.757 279.497 296.169 279.577 296.553 279.737C296.937 279.889 297.269 280.101 297.549 280.373C297.837 280.645 298.049 280.961 298.185 281.321L296.997 281.873C296.861 281.537 296.641 281.269 296.337 281.069C296.041 280.861 295.701 280.757 295.317 280.757C294.949 280.757 294.617 280.849 294.321 281.033C294.033 281.209 293.805 281.461 293.637 281.789C293.469 282.109 293.385 282.473 293.385 282.881C293.385 283.289 293.469 283.657 293.637 283.985C293.805 284.305 294.033 284.557 294.321 284.741C294.617 284.925 294.949 285.017 295.317 285.017C295.709 285.017 296.049 284.917 296.337 284.717C296.633 284.509 296.853 284.233 296.997 283.889L298.185 284.453C298.057 284.797 297.849 285.109 297.561 285.389C297.281 285.661 296.949 285.877 296.565 286.037C296.181 286.197 295.765 286.277 295.317 286.277ZM299.511 286.133V277.049H300.867V280.913L300.651 280.745C300.811 280.337 301.067 280.029 301.419 279.821C301.771 279.605 302.179 279.497 302.643 279.497C303.123 279.497 303.547 279.601 303.915 279.809C304.283 280.017 304.571 280.305 304.779 280.673C304.987 281.041 305.091 281.461 305.091 281.933V286.133H303.747V282.305C303.747 281.977 303.683 281.701 303.555 281.477C303.435 281.245 303.267 281.069 303.051 280.949C302.835 280.821 302.587 280.757 302.307 280.757C302.035 280.757 301.787 280.821 301.563 280.949C301.347 281.069 301.175 281.245 301.047 281.477C300.927 281.709 300.867 281.985 300.867 282.305V286.133H299.511ZM308.486 286.277C308.046 286.277 307.658 286.201 307.322 286.049C306.994 285.889 306.738 285.673 306.554 285.401C306.37 285.121 306.278 284.793 306.278 284.417C306.278 284.065 306.354 283.749 306.506 283.469C306.666 283.189 306.91 282.953 307.238 282.761C307.566 282.569 307.978 282.433 308.474 282.353L310.73 281.981V283.049L308.738 283.397C308.378 283.461 308.114 283.577 307.946 283.745C307.778 283.905 307.694 284.113 307.694 284.369C307.694 284.617 307.786 284.821 307.97 284.981C308.162 285.133 308.406 285.209 308.702 285.209C309.07 285.209 309.39 285.129 309.662 284.969C309.942 284.809 310.158 284.597 310.31 284.333C310.462 284.061 310.538 283.761 310.538 283.433V281.765C310.538 281.445 310.418 281.185 310.178 280.985C309.946 280.777 309.634 280.673 309.242 280.673C308.882 280.673 308.566 280.769 308.294 280.961C308.03 281.145 307.834 281.385 307.706 281.681L306.578 281.117C306.698 280.797 306.894 280.517 307.166 280.277C307.438 280.029 307.754 279.837 308.114 279.701C308.482 279.565 308.87 279.497 309.278 279.497C309.79 279.497 310.242 279.593 310.634 279.785C311.034 279.977 311.342 280.245 311.558 280.589C311.782 280.925 311.894 281.317 311.894 281.765V286.133H310.598V284.957L310.874 284.993C310.722 285.257 310.526 285.485 310.286 285.677C310.054 285.869 309.786 286.017 309.482 286.121C309.186 286.225 308.854 286.277 308.486 286.277ZM316.528 286.277C315.88 286.277 315.304 286.129 314.8 285.833C314.304 285.529 313.916 285.121 313.636 284.609C313.356 284.089 313.216 283.509 313.216 282.869C313.216 282.213 313.356 281.633 313.636 281.129C313.924 280.625 314.308 280.229 314.788 279.941C315.268 279.645 315.812 279.497 316.42 279.497C316.908 279.497 317.344 279.581 317.728 279.749C318.112 279.917 318.436 280.149 318.7 280.445C318.964 280.733 319.164 281.065 319.299 281.441C319.444 281.817 319.516 282.217 319.516 282.641C319.516 282.745 319.512 282.853 319.504 282.965C319.496 283.077 319.48 283.181 319.456 283.277H314.284V282.197H318.688L318.04 282.689C318.12 282.297 318.092 281.949 317.956 281.645C317.828 281.333 317.628 281.089 317.356 280.913C317.092 280.729 316.78 280.637 316.42 280.637C316.06 280.637 315.74 280.729 315.46 280.913C315.18 281.089 314.964 281.345 314.812 281.681C314.66 282.009 314.6 282.409 314.632 282.881C314.592 283.321 314.652 283.705 314.812 284.033C314.98 284.361 315.212 284.617 315.508 284.801C315.812 284.985 316.156 285.077 316.54 285.077C316.932 285.077 317.264 284.989 317.536 284.813C317.816 284.637 318.036 284.409 318.196 284.129L319.299 284.669C319.172 284.973 318.972 285.249 318.7 285.497C318.436 285.737 318.116 285.929 317.74 286.073C317.372 286.209 316.968 286.277 316.528 286.277ZM320.839 286.133V277.049H322.195V286.133H320.839Z" fill="white"/>
</g>
<defs>
<filter id="filter0_d_337_8176" x="129.5" y="133.633" width="141" height="141" filterUnits="userSpaceOnUse" color-interpolation-filters="sRGB">
<feFlood flood-opacity="0" result="BackgroundImageFix"/>
<feColorMatrix in="SourceAlpha" type="matrix" values="0 0 0 0 0 0 0 0 0 0 0 0 0 0 0 0 0 0 127 0" result="hardAlpha"/>
<feOffset dx="9" dy="13"/>
<feGaussianBlur stdDeviation="10"/>
<feComposite in2="hardAlpha" operator="out"/>
<feColorMatrix type="matrix" values="0 0 0 0 0 0 0 0 0 0 0 0 0 0 0 0 0 0 0.05 0"/>
<feBlend mode="normal" in2="BackgroundImageFix" result="effect1_dropShadow_337_8176"/>
<feBlend mode="normal" in="SourceGraphic" in2="effect1_dropShadow_337_8176" result="shape"/>
</filter>
<filter id="filter1_bdi_337_8176" x="52" y="155.133" width="92" height="76" filterUnits="userSpaceOnUse" color-interpolation-filters="sRGB">
<feFlood flood-opacity="0" result="BackgroundImageFix"/>
<feGaussianBlur in="BackgroundImageFix" stdDeviation="6"/>
<feComposite in2="SourceAlpha" operator="in" result="effect1_backgroundBlur_337_8176"/>
<feColorMatrix in="SourceAlpha" type="matrix" values="0 0 0 0 0 0 0 0 0 0 0 0 0 0 0 0 0 0 127 0" result="hardAlpha"/>
<feMorphology radius="16" operator="erode" in="SourceAlpha" result="effect2_dropShadow_337_8176"/>
<feOffset dy="32"/>
<feGaussianBlur stdDeviation="12"/>
<feComposite in2="hardAlpha" operator="out"/>
<feColorMatrix type="matrix" values="0 0 0 0 0 0 0 0 0 0 0 0 0 0 0 0 0 0 0.4 0"/>
<feBlend mode="multiply" in2="effect1_backgroundBlur_337_8176" result="effect2_dropShadow_337_8176"/>
<feBlend mode="normal" in="SourceGraphic" in2="effect2_dropShadow_337_8176" result="shape"/>
<feColorMatrix in="SourceAlpha" type="matrix" values="0 0 0 0 0 0 0 0 0 0 0 0 0 0 0 0 0 0 127 0" result="hardAlpha"/>
<feOffset/>
<feGaussianBlur stdDeviation="4"/>
<feComposite in2="hardAlpha" operator="arithmetic" k2="-1" k3="1"/>
<feColorMatrix type="matrix" values="0 0 0 0 0.972549 0 0 0 0 0.972549 0 0 0 0 0.972549 0 0 0 0.25 0"/>
<feBlend mode="normal" in2="shape" result="effect3_innerShadow_337_8176"/>
</filter>
<filter id="filter2_bdi_337_8176" x="256" y="257.133" width="89" height="76" filterUnits="userSpaceOnUse" color-interpolation-filters="sRGB">
<feFlood flood-opacity="0" result="BackgroundImageFix"/>
<feGaussianBlur in="BackgroundImageFix" stdDeviation="6"/>
<feComposite in2="SourceAlpha" operator="in" result="effect1_backgroundBlur_337_8176"/>
<feColorMatrix in="SourceAlpha" type="matrix" values="0 0 0 0 0 0 0 0 0 0 0 0 0 0 0 0 0 0 127 0" result="hardAlpha"/>
<feMorphology radius="16" operator="erode" in="SourceAlpha" result="effect2_dropShadow_337_8176"/>
<feOffset dy="32"/>
<feGaussianBlur stdDeviation="12"/>
<feComposite in2="hardAlpha" operator="out"/>
<feColorMatrix type="matrix" values="0 0 0 0 0 0 0 0 0 0 0 0 0 0 0 0 0 0 0.4 0"/>
<feBlend mode="multiply" in2="effect1_backgroundBlur_337_8176" result="effect2_dropShadow_337_8176"/>
<feBlend mode="normal" in="SourceGraphic" in2="effect2_dropShadow_337_8176" result="shape"/>
<feColorMatrix in="SourceAlpha" type="matrix" values="0 0 0 0 0 0 0 0 0 0 0 0 0 0 0 0 0 0 127 0" result="hardAlpha"/>
<feOffset/>
<feGaussianBlur stdDeviation="4"/>
<feComposite in2="hardAlpha" operator="arithmetic" k2="-1" k3="1"/>
<feColorMatrix type="matrix" values="0 0 0 0 0.972549 0 0 0 0 0.972549 0 0 0 0 0.972549 0 0 0 0.25 0"/>
<feBlend mode="normal" in2="shape" result="effect3_innerShadow_337_8176"/>
</filter>
<radialGradient id="paint0_radial_337_8176" cx="0" cy="0" r="1" gradientUnits="userSpaceOnUse" gradientTransform="translate(191 191.133) rotate(90) scale(198.5)">
<stop stop-color="#E5E5E5"/>
<stop offset="1" stop-color="#E5E5E5" stop-opacity="0"/>
</radialGradient>
<radialGradient id="paint1_radial_337_8176" cx="0" cy="0" r="1" gradientUnits="userSpaceOnUse" gradientTransform="translate(191 191.133) rotate(90) scale(198.5)">
<stop stop-color="#E5E5E5"/>
<stop offset="1" stop-color="#E5E5E5" stop-opacity="0"/>
</radialGradient>
<radialGradient id="paint2_radial_337_8176" cx="0" cy="0" r="1" gradientUnits="userSpaceOnUse" gradientTransform="translate(191 191.133) rotate(90) scale(198.5)">
<stop stop-color="#E5E5E5"/>
<stop offset="1" stop-color="#E5E5E5" stop-opacity="0"/>
</radialGradient>
<radialGradient id="paint3_radial_337_8176" cx="0" cy="0" r="1" gradientUnits="userSpaceOnUse" gradientTransform="translate(191 191.133) rotate(90) scale(198.5)">
<stop stop-color="#E5E5E5"/>
<stop offset="1" stop-color="#E5E5E5" stop-opacity="0"/>
</radialGradient>
<radialGradient id="paint4_radial_337_8176" cx="0" cy="0" r="1" gradientUnits="userSpaceOnUse" gradientTransform="translate(191 191.133) rotate(90) scale(198.5)">
<stop stop-color="#E5E5E5"/>
<stop offset="1" stop-color="#E5E5E5" stop-opacity="0"/>
</radialGradient>
<radialGradient id="paint5_radial_337_8176" cx="0" cy="0" r="1" gradientUnits="userSpaceOnUse" gradientTransform="translate(191 191.133) rotate(90) scale(198.5)">
<stop stop-color="#E5E5E5"/>
<stop offset="1" stop-color="#E5E5E5" stop-opacity="0"/>
</radialGradient>
<radialGradient id="paint6_radial_337_8176" cx="0" cy="0" r="1" gradientUnits="userSpaceOnUse" gradientTransform="translate(191 191.133) rotate(90) scale(198.5)">
<stop stop-color="#E5E5E5"/>
<stop offset="1" stop-color="#E5E5E5" stop-opacity="0"/>
</radialGradient>
<radialGradient id="paint7_radial_337_8176" cx="0" cy="0" r="1" gradientUnits="userSpaceOnUse" gradientTransform="translate(191 191.133) rotate(90) scale(198.5)">
<stop stop-color="#E5E5E5"/>
<stop offset="1" stop-color="#E5E5E5" stop-opacity="0"/>
</radialGradient>
<radialGradient id="paint8_radial_337_8176" cx="0" cy="0" r="1" gradientUnits="userSpaceOnUse" gradientTransform="translate(191 191.133) rotate(90) scale(198.5)">
<stop stop-color="#E5E5E5"/>
<stop offset="1" stop-color="#E5E5E5" stop-opacity="0"/>
</radialGradient>
<radialGradient id="paint9_radial_337_8176" cx="0" cy="0" r="1" gradientUnits="userSpaceOnUse" gradientTransform="translate(191 191.133) rotate(90) scale(198.5)">
<stop stop-color="#E5E5E5"/>
<stop offset="1" stop-color="#E5E5E5" stop-opacity="0"/>
</radialGradient>
<radialGradient id="paint10_radial_337_8176" cx="0" cy="0" r="1" gradientUnits="userSpaceOnUse" gradientTransform="translate(191 191.133) rotate(90) scale(198.5)">
<stop stop-color="#E5E5E5"/>
<stop offset="1" stop-color="#E5E5E5" stop-opacity="0"/>
</radialGradient>
</defs>
</svg>
