<svg width="376" height="172" viewBox="0 0 376 172" fill="none" xmlns="http://www.w3.org/2000/svg">
<g clip-path="url(#clip0_426_17062)">
<g clip-path="url(#clip1_426_17062)">
<rect x="43" y="62.1333" width="289.716" height="47.7699" rx="10.0568" fill="white"/>
<g filter="url(#filter0_d_426_17062)">
<rect x="47.1895" y="66.3237" width="39.3892" height="39.3892" rx="8.38068" fill="#2E66EF"/>
<path d="M61.6484 86.2627H72.6073" stroke="#FFFBFB" stroke-width="1.17417" stroke-linecap="round" stroke-linejoin="round"/>
<path d="M67.1309 80.7832V91.7421" stroke="#FFFBFB" stroke-width="1.17417" stroke-linecap="round" stroke-linejoin="round"/>
</g>
<g filter="url(#filter1_d_426_17062)">
<rect x="95.5801" y="66.3237" width="39.3892" height="39.3892" rx="8.38068" fill="white"/>
<path d="M117.675 78.7551H110.761C110.354 78.7551 109.963 78.917 109.675 79.2051C109.386 79.4933 109.225 79.8841 109.225 80.2916V92.5833C109.225 92.9907 109.386 93.3816 109.675 93.6697C109.963 93.9578 110.354 94.1197 110.761 94.1197H119.98C120.387 94.1197 120.778 93.9578 121.066 93.6697C121.354 93.3816 121.516 92.9907 121.516 92.5833V82.5963L117.675 78.7551Z" stroke="#050810" stroke-width="1.1733" stroke-linecap="round" stroke-linejoin="round"/>
<path d="M116.906 78.7551V81.828C116.906 82.2355 117.068 82.6263 117.356 82.9145C117.644 83.2026 118.035 83.3645 118.443 83.3645H121.516" stroke="#050810" stroke-width="1.1733" stroke-linecap="round" stroke-linejoin="round"/>
</g>
<g filter="url(#filter2_d_426_17062)">
<rect x="143.969" y="66.3237" width="39.3892" height="39.3892" rx="8.38068" fill="white"/>
<path d="M169.941 78.6973H157.585C157.158 78.6973 156.812 79.043 156.812 79.4695V83.3308C156.812 83.7573 157.158 84.1031 157.585 84.1031H169.941C170.367 84.1031 170.713 83.7573 170.713 83.3308V79.4695C170.713 79.043 170.367 78.6973 169.941 78.6973Z" stroke="#050810" stroke-width="1.15839" stroke-linecap="round" stroke-linejoin="round"/>
<path d="M161.446 87.1924H157.585C157.158 87.1924 156.812 87.5381 156.812 87.9646V91.8259C156.812 92.2524 157.158 92.5982 157.585 92.5982H161.446C161.873 92.5982 162.218 92.2524 162.218 91.8259V87.9646C162.218 87.5381 161.873 87.1924 161.446 87.1924Z" stroke="#050810" stroke-width="1.15839" stroke-linecap="round" stroke-linejoin="round"/>
<path d="M169.938 87.1924H166.077C165.65 87.1924 165.305 87.5381 165.305 87.9646V91.8259C165.305 92.2524 165.65 92.5982 166.077 92.5982H169.938C170.365 92.5982 170.71 92.2524 170.71 91.8259V87.9646C170.71 87.5381 170.365 87.1924 169.938 87.1924Z" stroke="#050810" stroke-width="1.15839" stroke-linecap="round" stroke-linejoin="round"/>
</g>
<g filter="url(#filter3_d_426_17062)">
<rect x="192.357" y="66.3237" width="39.3892" height="39.3892" rx="8.38068" fill="white"/>
<path d="M212.101 82.5586C215.939 82.5586 219.051 81.5213 219.051 80.2418C219.051 78.9623 215.939 77.925 212.101 77.925C208.262 77.925 205.15 78.9623 205.15 80.2418C205.15 81.5213 208.262 82.5586 212.101 82.5586Z" stroke="#050810" stroke-width="1.15839" stroke-linecap="round" stroke-linejoin="round"/>
<path d="M205.15 80.2419V91.0536C205.15 91.668 205.883 92.2573 207.186 92.6918C208.49 93.1262 210.257 93.3703 212.101 93.3703C213.944 93.3703 215.712 93.1262 217.015 92.6918C218.319 92.2573 219.051 91.668 219.051 91.0536V80.2419" stroke="#050810" stroke-width="1.15839" stroke-linecap="round" stroke-linejoin="round"/>
<path d="M205.15 85.6477C205.15 86.2622 205.883 86.8514 207.186 87.2859C208.49 87.7204 210.257 87.9645 212.101 87.9645C213.944 87.9645 215.712 87.7204 217.015 87.2859C218.319 86.8514 219.051 86.2622 219.051 85.6477" stroke="#050810" stroke-width="1.15839" stroke-linecap="round" stroke-linejoin="round"/>
</g>
<g filter="url(#filter4_d_426_17062)">
<rect x="240.748" y="66.3237" width="39.3892" height="39.3892" rx="8.38068" fill="white"/>
<path d="M267.397 85.4969C267.871 85.3126 268.108 85.2204 268.174 85.0901C268.232 84.9772 268.23 84.8432 268.17 84.7318C268.1 84.6033 267.86 84.5174 267.382 84.3456L255.175 79.9637C254.783 79.8231 254.587 79.7528 254.459 79.7971C254.348 79.8357 254.261 79.9231 254.222 80.0344C254.178 80.1624 254.248 80.3582 254.389 80.7497L258.771 92.9567C258.942 93.4353 259.028 93.6746 259.157 93.7445C259.268 93.8051 259.402 93.8068 259.515 93.7492C259.645 93.6827 259.738 93.4457 259.922 92.9718L261.917 87.8419C261.953 87.749 261.971 87.7026 261.999 87.6635C262.024 87.6289 262.054 87.5986 262.089 87.5739C262.128 87.546 262.174 87.5279 262.267 87.4918L267.397 85.4969Z" stroke="#050810" stroke-width="1.28038" stroke-linecap="round" stroke-linejoin="round"/>
</g>
<g filter="url(#filter5_d_426_17062)">
<rect x="289.137" y="66.3237" width="39.3892" height="39.3892" rx="8.38068" fill="white"/>
<path d="M313.442 85.6694V81.8282C313.442 81.4207 313.28 81.0299 312.992 80.7418C312.704 80.4536 312.313 80.2917 311.906 80.2917C311.498 80.2917 311.107 80.4536 310.819 80.7418C310.531 81.0299 310.369 81.4207 310.369 81.8282" stroke="#050810" stroke-width="1.28038" stroke-linecap="round" stroke-linejoin="round"/>
<path d="M310.37 84.901V80.2916C310.37 79.8841 310.208 79.4933 309.92 79.2051C309.632 78.917 309.241 78.7551 308.833 78.7551C308.426 78.7551 308.035 78.917 307.747 79.2051C307.459 79.4933 307.297 79.8841 307.297 80.2916V81.828" stroke="#050810" stroke-width="1.28038" stroke-linecap="round" stroke-linejoin="round"/>
<path d="M307.296 85.2852V81.8282C307.296 81.4207 307.134 81.0299 306.846 80.7418C306.557 80.4536 306.167 80.2917 305.759 80.2917C305.352 80.2917 304.961 80.4536 304.673 80.7418C304.385 81.0299 304.223 81.4207 304.223 81.8282V87.974" stroke="#050810" stroke-width="1.28038" stroke-linecap="round" stroke-linejoin="round"/>
<path d="M313.443 83.3646C313.443 82.9571 313.605 82.5663 313.893 82.2781C314.181 81.99 314.572 81.8281 314.98 81.8281C315.387 81.8281 315.778 81.99 316.066 82.2781C316.354 82.5663 316.516 82.9571 316.516 83.3646V87.974C316.516 89.6039 315.868 91.1672 314.716 92.3197C313.563 93.4723 312 94.1198 310.37 94.1198H308.834C306.683 94.1198 305.377 93.4591 304.232 92.3221L301.466 89.5565C301.202 89.2638 301.06 88.8806 301.071 88.4863C301.081 88.092 301.243 87.7169 301.522 87.4385C301.802 87.1601 302.177 86.9998 302.572 86.9908C302.966 86.9818 303.349 87.1247 303.64 87.3901L304.993 88.7422" stroke="#050810" stroke-width="1.28038" stroke-linecap="round" stroke-linejoin="round"/>
</g>
</g>
<path d="M79.0837 104.317C78.8959 104.249 78.7054 104.181 78.5445 104.139C78.3919 104.099 78.0973 104.033 77.7814 104.143C77.4193 104.268 77.1347 104.553 77.0093 104.915C76.8999 105.231 76.9657 105.525 77.0053 105.678C77.0471 105.839 77.1156 106.029 77.183 106.217L81.9571 119.517C82.0409 119.75 82.1213 119.974 82.2006 120.147C82.2676 120.292 82.42 120.611 82.7513 120.792C83.1136 120.989 83.5499 120.995 83.9172 120.807C84.2532 120.635 84.4139 120.321 84.4847 120.177C84.5685 120.006 84.6547 119.784 84.7446 119.553L86.8936 114.027L92.4196 111.878C92.6509 111.788 92.8726 111.702 93.043 111.618C93.187 111.547 93.5018 111.387 93.6734 111.051C93.8609 110.683 93.8552 110.247 93.6581 109.885C93.4778 109.554 93.1589 109.401 93.0131 109.334C92.8405 109.255 92.6165 109.174 92.383 109.091L79.0837 104.317Z" fill="#050810" stroke="white" stroke-width="1.5" stroke-linecap="round" stroke-linejoin="round"/>
<g filter="url(#filter6_bdi_426_17062)">
<rect x="91" y="118.133" width="65" height="24" rx="8" fill="#050810"/>
<path d="M101.936 135.133V126.193H103.256L106.616 130.849H105.956L109.256 126.193H110.576V135.133H109.172V127.861L109.7 128.005L106.328 132.613H106.184L102.884 128.005L103.352 127.861V135.133H101.936ZM112.292 135.133V128.641H113.648V135.133H112.292ZM112.292 127.753V126.193H113.648V127.753H112.292ZM118.317 135.277C117.669 135.277 117.093 135.129 116.589 134.833C116.093 134.529 115.697 134.121 115.401 133.609C115.113 133.097 114.969 132.517 114.969 131.869C114.969 131.229 115.113 130.653 115.401 130.141C115.689 129.629 116.085 129.229 116.589 128.941C117.093 128.645 117.669 128.497 118.317 128.497C118.757 128.497 119.169 128.577 119.553 128.737C119.937 128.889 120.269 129.101 120.549 129.373C120.837 129.645 121.049 129.961 121.185 130.321L119.997 130.873C119.861 130.537 119.641 130.269 119.337 130.069C119.041 129.861 118.701 129.757 118.317 129.757C117.949 129.757 117.617 129.849 117.321 130.033C117.033 130.209 116.805 130.461 116.637 130.789C116.469 131.109 116.385 131.473 116.385 131.881C116.385 132.289 116.469 132.657 116.637 132.985C116.805 133.305 117.033 133.557 117.321 133.741C117.617 133.925 117.949 134.017 118.317 134.017C118.709 134.017 119.049 133.917 119.337 133.717C119.633 133.509 119.853 133.233 119.997 132.889L121.185 133.453C121.057 133.797 120.849 134.109 120.561 134.389C120.281 134.661 119.949 134.877 119.565 135.037C119.181 135.197 118.765 135.277 118.317 135.277ZM122.511 135.133V126.049H123.867V129.913L123.651 129.745C123.811 129.337 124.067 129.029 124.419 128.821C124.771 128.605 125.179 128.497 125.643 128.497C126.123 128.497 126.547 128.601 126.915 128.809C127.283 129.017 127.571 129.305 127.779 129.673C127.987 130.041 128.091 130.461 128.091 130.933V135.133H126.747V131.305C126.747 130.977 126.683 130.701 126.555 130.477C126.435 130.245 126.267 130.069 126.051 129.949C125.835 129.821 125.587 129.757 125.307 129.757C125.035 129.757 124.787 129.821 124.563 129.949C124.347 130.069 124.175 130.245 124.047 130.477C123.927 130.709 123.867 130.985 123.867 131.305V135.133H122.511ZM131.486 135.277C131.046 135.277 130.658 135.201 130.322 135.049C129.994 134.889 129.738 134.673 129.554 134.401C129.37 134.121 129.278 133.793 129.278 133.417C129.278 133.065 129.354 132.749 129.506 132.469C129.666 132.189 129.91 131.953 130.238 131.761C130.566 131.569 130.978 131.433 131.474 131.353L133.73 130.981V132.049L131.738 132.397C131.378 132.461 131.114 132.577 130.946 132.745C130.778 132.905 130.694 133.113 130.694 133.369C130.694 133.617 130.786 133.821 130.97 133.981C131.162 134.133 131.406 134.209 131.702 134.209C132.07 134.209 132.39 134.129 132.662 133.969C132.942 133.809 133.158 133.597 133.31 133.333C133.462 133.061 133.538 132.761 133.538 132.433V130.765C133.538 130.445 133.418 130.185 133.178 129.985C132.946 129.777 132.634 129.673 132.242 129.673C131.882 129.673 131.566 129.769 131.294 129.961C131.03 130.145 130.834 130.385 130.706 130.681L129.578 130.117C129.698 129.797 129.894 129.517 130.166 129.277C130.438 129.029 130.754 128.837 131.114 128.701C131.482 128.565 131.87 128.497 132.278 128.497C132.79 128.497 133.242 128.593 133.634 128.785C134.034 128.977 134.342 129.245 134.558 129.589C134.782 129.925 134.894 130.317 134.894 130.765V135.133H133.598V133.957L133.874 133.993C133.722 134.257 133.526 134.485 133.286 134.677C133.054 134.869 132.786 135.017 132.482 135.121C132.186 135.225 131.854 135.277 131.486 135.277ZM139.528 135.277C138.88 135.277 138.304 135.129 137.8 134.833C137.304 134.529 136.916 134.121 136.636 133.609C136.356 133.089 136.216 132.509 136.216 131.869C136.216 131.213 136.356 130.633 136.636 130.129C136.924 129.625 137.308 129.229 137.788 128.941C138.268 128.645 138.812 128.497 139.42 128.497C139.908 128.497 140.344 128.581 140.728 128.749C141.112 128.917 141.436 129.149 141.7 129.445C141.964 129.733 142.164 130.065 142.299 130.441C142.444 130.817 142.516 131.217 142.516 131.641C142.516 131.745 142.512 131.853 142.504 131.965C142.496 132.077 142.48 132.181 142.456 132.277H137.284V131.197H141.688L141.04 131.689C141.12 131.297 141.092 130.949 140.956 130.645C140.828 130.333 140.628 130.089 140.356 129.913C140.092 129.729 139.78 129.637 139.42 129.637C139.06 129.637 138.74 129.729 138.46 129.913C138.18 130.089 137.964 130.345 137.812 130.681C137.66 131.009 137.6 131.409 137.632 131.881C137.592 132.321 137.652 132.705 137.812 133.033C137.98 133.361 138.212 133.617 138.508 133.801C138.812 133.985 139.156 134.077 139.54 134.077C139.932 134.077 140.264 133.989 140.536 133.813C140.816 133.637 141.036 133.409 141.196 133.129L142.299 133.669C142.172 133.973 141.972 134.249 141.7 134.497C141.436 134.737 141.116 134.929 140.74 135.073C140.372 135.209 139.968 135.277 139.528 135.277ZM143.839 135.133V126.049H145.195V135.133H143.839Z" fill="white"/>
</g>
</g>
<defs>
<filter id="filter0_d_426_17062" x="17.1895" y="40.3237" width="99.3887" height="99.3892" filterUnits="userSpaceOnUse" color-interpolation-filters="sRGB">
<feFlood flood-opacity="0" result="BackgroundImageFix"/>
<feColorMatrix in="SourceAlpha" type="matrix" values="0 0 0 0 0 0 0 0 0 0 0 0 0 0 0 0 0 0 127 0" result="hardAlpha"/>
<feOffset dy="4"/>
<feGaussianBlur stdDeviation="15"/>
<feComposite in2="hardAlpha" operator="out"/>
<feColorMatrix type="matrix" values="0 0 0 0 0.180392 0 0 0 0 0.4 0 0 0 0 0.937255 0 0 0 0.4 0"/>
<feBlend mode="normal" in2="BackgroundImageFix" result="effect1_dropShadow_426_17062"/>
<feBlend mode="normal" in="SourceGraphic" in2="effect1_dropShadow_426_17062" result="shape"/>
</filter>
<filter id="filter1_d_426_17062" x="65.5801" y="40.3237" width="99.3887" height="99.3892" filterUnits="userSpaceOnUse" color-interpolation-filters="sRGB">
<feFlood flood-opacity="0" result="BackgroundImageFix"/>
<feColorMatrix in="SourceAlpha" type="matrix" values="0 0 0 0 0 0 0 0 0 0 0 0 0 0 0 0 0 0 127 0" result="hardAlpha"/>
<feOffset dy="4"/>
<feGaussianBlur stdDeviation="15"/>
<feComposite in2="hardAlpha" operator="out"/>
<feColorMatrix type="matrix" values="0 0 0 0 0 0 0 0 0 0 0 0 0 0 0 0 0 0 0.08 0"/>
<feBlend mode="normal" in2="BackgroundImageFix" result="effect1_dropShadow_426_17062"/>
<feBlend mode="normal" in="SourceGraphic" in2="effect1_dropShadow_426_17062" result="shape"/>
</filter>
<filter id="filter2_d_426_17062" x="113.969" y="40.3237" width="99.3887" height="99.3892" filterUnits="userSpaceOnUse" color-interpolation-filters="sRGB">
<feFlood flood-opacity="0" result="BackgroundImageFix"/>
<feColorMatrix in="SourceAlpha" type="matrix" values="0 0 0 0 0 0 0 0 0 0 0 0 0 0 0 0 0 0 127 0" result="hardAlpha"/>
<feOffset dy="4"/>
<feGaussianBlur stdDeviation="15"/>
<feComposite in2="hardAlpha" operator="out"/>
<feColorMatrix type="matrix" values="0 0 0 0 0 0 0 0 0 0 0 0 0 0 0 0 0 0 0.08 0"/>
<feBlend mode="normal" in2="BackgroundImageFix" result="effect1_dropShadow_426_17062"/>
<feBlend mode="normal" in="SourceGraphic" in2="effect1_dropShadow_426_17062" result="shape"/>
</filter>
<filter id="filter3_d_426_17062" x="162.357" y="40.3237" width="99.3887" height="99.3892" filterUnits="userSpaceOnUse" color-interpolation-filters="sRGB">
<feFlood flood-opacity="0" result="BackgroundImageFix"/>
<feColorMatrix in="SourceAlpha" type="matrix" values="0 0 0 0 0 0 0 0 0 0 0 0 0 0 0 0 0 0 127 0" result="hardAlpha"/>
<feOffset dy="4"/>
<feGaussianBlur stdDeviation="15"/>
<feComposite in2="hardAlpha" operator="out"/>
<feColorMatrix type="matrix" values="0 0 0 0 0 0 0 0 0 0 0 0 0 0 0 0 0 0 0.08 0"/>
<feBlend mode="normal" in2="BackgroundImageFix" result="effect1_dropShadow_426_17062"/>
<feBlend mode="normal" in="SourceGraphic" in2="effect1_dropShadow_426_17062" result="shape"/>
</filter>
<filter id="filter4_d_426_17062" x="210.748" y="40.3237" width="99.3887" height="99.3892" filterUnits="userSpaceOnUse" color-interpolation-filters="sRGB">
<feFlood flood-opacity="0" result="BackgroundImageFix"/>
<feColorMatrix in="SourceAlpha" type="matrix" values="0 0 0 0 0 0 0 0 0 0 0 0 0 0 0 0 0 0 127 0" result="hardAlpha"/>
<feOffset dy="4"/>
<feGaussianBlur stdDeviation="15"/>
<feComposite in2="hardAlpha" operator="out"/>
<feColorMatrix type="matrix" values="0 0 0 0 0 0 0 0 0 0 0 0 0 0 0 0 0 0 0.08 0"/>
<feBlend mode="normal" in2="BackgroundImageFix" result="effect1_dropShadow_426_17062"/>
<feBlend mode="normal" in="SourceGraphic" in2="effect1_dropShadow_426_17062" result="shape"/>
</filter>
<filter id="filter5_d_426_17062" x="259.137" y="40.3237" width="99.3887" height="99.3892" filterUnits="userSpaceOnUse" color-interpolation-filters="sRGB">
<feFlood flood-opacity="0" result="BackgroundImageFix"/>
<feColorMatrix in="SourceAlpha" type="matrix" values="0 0 0 0 0 0 0 0 0 0 0 0 0 0 0 0 0 0 127 0" result="hardAlpha"/>
<feOffset dy="4"/>
<feGaussianBlur stdDeviation="15"/>
<feComposite in2="hardAlpha" operator="out"/>
<feColorMatrix type="matrix" values="0 0 0 0 0 0 0 0 0 0 0 0 0 0 0 0 0 0 0.08 0"/>
<feBlend mode="normal" in2="BackgroundImageFix" result="effect1_dropShadow_426_17062"/>
<feBlend mode="normal" in="SourceGraphic" in2="effect1_dropShadow_426_17062" result="shape"/>
</filter>
<filter id="filter6_bdi_426_17062" x="79" y="106.133" width="89" height="76" filterUnits="userSpaceOnUse" color-interpolation-filters="sRGB">
<feFlood flood-opacity="0" result="BackgroundImageFix"/>
<feGaussianBlur in="BackgroundImageFix" stdDeviation="6"/>
<feComposite in2="SourceAlpha" operator="in" result="effect1_backgroundBlur_426_17062"/>
<feColorMatrix in="SourceAlpha" type="matrix" values="0 0 0 0 0 0 0 0 0 0 0 0 0 0 0 0 0 0 127 0" result="hardAlpha"/>
<feMorphology radius="16" operator="erode" in="SourceAlpha" result="effect2_dropShadow_426_17062"/>
<feOffset dy="32"/>
<feGaussianBlur stdDeviation="12"/>
<feComposite in2="hardAlpha" operator="out"/>
<feColorMatrix type="matrix" values="0 0 0 0 0 0 0 0 0 0 0 0 0 0 0 0 0 0 0.4 0"/>
<feBlend mode="multiply" in2="effect1_backgroundBlur_426_17062" result="effect2_dropShadow_426_17062"/>
<feBlend mode="normal" in="SourceGraphic" in2="effect2_dropShadow_426_17062" result="shape"/>
<feColorMatrix in="SourceAlpha" type="matrix" values="0 0 0 0 0 0 0 0 0 0 0 0 0 0 0 0 0 0 127 0" result="hardAlpha"/>
<feOffset/>
<feGaussianBlur stdDeviation="4"/>
<feComposite in2="hardAlpha" operator="arithmetic" k2="-1" k3="1"/>
<feColorMatrix type="matrix" values="0 0 0 0 0.972549 0 0 0 0 0.972549 0 0 0 0 0.972549 0 0 0 0.25 0"/>
<feBlend mode="normal" in2="shape" result="effect3_innerShadow_426_17062"/>
</filter>
<clipPath id="clip0_426_17062">
<rect width="376" height="171" fill="white" transform="translate(0 0.133301)"/>
</clipPath>
<clipPath id="clip1_426_17062">
<rect x="43" y="62.1333" width="289.716" height="47.7699" rx="10.0568" fill="white"/>
</clipPath>
</defs>
</svg>
