<svg width="32" height="32" viewBox="0 0 32 32" fill="none" xmlns="http://www.w3.org/2000/svg">
<rect width="32" height="32" rx="8" fill="#F1F2F3"/>
<g clip-path="url(#clip0_308_7017)">
<path d="M16 26C21.5228 26 26 21.5228 26 16C26 10.4772 21.5228 6 16 6C10.4772 6 6 10.4772 6 16C6 21.5228 10.4772 26 16 26Z" fill="#4353FF"/>
<path d="M18.9379 14.8125L18.0316 17.6688C18.0316 17.45 17.4066 12.7125 17.4066 12.7125C15.9691 12.7125 15.2066 13.7313 14.8066 14.8125L13.7004 17.675C13.7004 17.4688 13.5441 14.8375 13.5441 14.8375C13.4908 14.2679 13.2304 13.7376 12.8123 13.3472C12.3941 12.9567 11.8473 12.7331 11.2754 12.7188L12.4504 19.8938C13.9504 19.8938 14.7629 18.875 15.1816 17.7938L16.1191 15.3563C16.1191 15.4563 16.7441 19.8938 16.7441 19.8938C17.3575 19.893 17.9547 19.6969 18.4491 19.3339C18.9436 18.971 19.3096 18.46 19.4941 17.875L21.6191 12.7125C20.1191 12.7125 19.3316 13.7313 18.9316 14.8125H18.9379Z" fill="white"/>
</g>
<defs>
<clipPath id="clip0_308_7017">
<rect width="20" height="20" fill="white" transform="translate(6 6)"/>
</clipPath>
</defs>
</svg>
